<?xml version="1.0" standalone="no"?>
<!DOCTYPE svg PUBLIC "-//W3C//DTD SVG 20010904//EN"
 "http://www.w3.org/TR/2001/REC-SVG-20010904/DTD/svg10.dtd">
<svg version="1.0" xmlns="http://www.w3.org/2000/svg"
 width="512.000000pt" height="512.000000pt" viewBox="0 0 512.000000 512.000000"
 preserveAspectRatio="xMidYMid meet">
<metadata>
Created by potrace 1.11, written by Peter Selinger 2001-2013
</metadata>
<g transform="translate(0.000000,512.000000) scale(0.100000,-0.100000)"
fill="#000000" stroke="none">
<path d="M595 5080 c-240 -53 -422 -203 -513 -422 -64 -155 -61 -45 -61 -2103
0 -2012 -2 -1942 51 -2075 21 -54 62 -132 83 -158 101 -126 161 -175 280 -231
150 -71 -3 -66 2135 -66 1848 0 1938 1 2000 18 117 33 240 105 320 186 99 100
177 246 197 369 11 64 10 3877 0 3927 -53 250 -272 488 -498 541 -19 4 -38 9
-44 10 -82 22 -272 24 -2000 23 -1749 -1 -1875 -2 -1950 -19z"/>
</g>
</svg>
