<?xml version="1.0" standalone="no"?>
<!DOCTYPE svg PUBLIC "-//W3C//DTD SVG 20010904//EN"
 "http://www.w3.org/TR/2001/REC-SVG-20010904/DTD/svg10.dtd">
<svg version="1.0" xmlns="http://www.w3.org/2000/svg"
 width="1150.000000pt" height="1150.000000pt" viewBox="0 0 1150.000000 1150.000000"
 preserveAspectRatio="xMidYMid meet">
<g transform="translate(0.000000,1150.000000) scale(0.100000,-0.100000)"
fill="#000000" stroke="none">
<path d="M1470 11485 c-156 -25 -220 -41 -358 -91 -439 -159 -803 -511 -984
-951 -22 -53 -41 -103 -44 -112 -2 -9 -13 -47 -24 -86 -11 -38 -28 -110 -38
-160 -16 -85 -17 -342 -17 -4335 0 -4045 1 -4249 18 -4339 108 -560 449 -1007
952 -1247 115 -55 295 -114 403 -133 34 -6 74 -14 89 -18 16 -4 1929 -9 4253
-10 3489 -1 4239 1 4305 12 44 7 96 16 115 19 49 7 194 50 276 81 96 36 264
126 359 193 226 158 422 387 544 635 70 142 83 176 121 317 28 103 34 135 50
255 9 66 8 8465 -1 8505 -12 52 -19 86 -24 120 -31 187 -150 462 -281 646 -69
97 -213 252 -304 326 -205 169 -486 303 -735 352 -44 9 -93 19 -110 23 -16 4
-1931 8 -4255 9 -3477 2 -4240 0 -4310 -11z"/>
</g>
</svg>
