<svg id="Vector_Turbine_Logo_copy" data-name="Vector Turbine Logo copy" xmlns="http://www.w3.org/2000/svg" xmlns:xlink="http://www.w3.org/1999/xlink" width="512" height="512" viewBox="0 0 512 512">
 <defs>
    <style>
      .cls-1 {
        fill: #fff;
      }

      .cls-2 {
        fill: #f2f2f2;
        stroke: #626262;
        stroke-width: 4.43px;
        filter: url(#filterw);
      }

      .cls-2, .cls-4, .cls-5 {
        fill-rule: evenodd;
      }

      .cls-3 {
        fill: #e0e0e0; /* c3c3c3 */
      }

      .cls-4 {
        fill: none;
        stroke: #fff;
        stroke-linecap: round;
        stroke-linejoin: round;
        stroke-width: 6.35px;
      }

      .cls-5 {
        fill: #666; /* Lower Text */
        opacity: 0.5;
      }
    </style>
    <filter id="filterw" x="-48" y="-51" width="608" height="614" filterUnits="userSpaceOnUse">
      <feOffset result="offset" in="SourceAlpha"/>
      <feGaussianBlur result="blur" stdDeviation="3.742"/>
      <feFlood result="flood" flood-color="#6e767b" flood-opacity="0.06"/>
      <feComposite result="composite" operator="in" in2="blur"/>
      <feOffset result="offset-2" in="SourceAlpha"/>
      <feGaussianBlur result="blur-2" stdDeviation="7.483"/>
      <feFlood result="flood-2" flood-color="#5c6367" flood-opacity="0.08"/>
      <feComposite result="composite-2" operator="in" in2="blur-2"/>
      <feBlend result="blend" mode="blendSubtraction" in2="composite"/>
      <feOffset result="offset-3" in="SourceAlpha"/>
      <feGaussianBlur result="blur-3" stdDeviation="7.681"/>
      <feFlood result="flood-3" flood-color="#ac9e00" flood-opacity="0.17"/>
      <feComposite result="composite-3" operator="in" in2="blur-3"/>
      <feBlend result="blend-2" mode="blendDivide" in2="blend"/>
      <feGaussianBlur result="blur-4" stdDeviation="6.667" in="SourceAlpha"/>
      <feComposite result="composite-4"/>
      <feComposite result="composite-5"/>
      <feComposite result="composite-6"/>
      <feFlood result="flood-4" flood-color="lightgray" flood-opacity="0.75"/> <!--Shadow:408bd2:15-->
      <feComposite result="composite-7" operator="in" in2="composite-6"/>
      <feBlend result="blend-3" mode="screen" in2="blend-2"/>
      <feBlend result="blend-4" in="SourceGraphic"/>
    </filter>
  </defs>
  <circle class="cls-1" cx="256" cy="256" r="256"/>
  <g style="fill: #f2f2f2; filter: url(#filterw)">
  <animateTransform _attributeName="transform" type="rotate" values="0 255.5 255.5;360 255.5 255.5" begin="0s" dur="10s" fill="freeze" repeatCount="indefinite"></animateTransform>

    <path id="path" class="cls-2" d="M322.726,235.007s-7.342-1.425-15.094-3.159a56.524,56.524,0,0,1,4.24,12.834c3.686,1.61,8.222,3.671,13.775,6.276,61.935,29.051,156.28-8.09,156.28-8.09,19.072,15.721,13.228,55.555,13.228,55.555-51.736-15.8-43.965,3.206-88.229-4.153S326.3,259.385,326.3,259.385s-6.688-4.006-13.528-8.382c0.143,1.648.231,3.312,0.231,5a57.388,57.388,0,0,1-.791,9.433c2.786,2.664,6.127,5.944,10.127,9.958C370.653,323.875,472.2,321.164,472.2,321.164c12.552,21.3-6.625,56.777-6.625,56.777-43.266-32.537-42.48-12-81.612-34.044s-63.908-60.357-63.908-60.357-4.548-5.6-9.285-11.762A56.639,56.639,0,0,1,306.1,283.2c1.854,3.717,4.121,8.453,6.875,14.406,28.683,62,124.527,94.153,124.527,94.153,4.492,24.274-25.493,51-25.493,51-29.383-45.309-35.629-25.776-64.715-59.826s-39.222-78.462-39.222-78.462-2.741-7.938-5.239-16a57.3,57.3,0,0,1-8.713,9.895c0.5,4.225,1.042,9.659,1.634,16.57,5.824,67.952,85,130.924,85,130.924-4.058,24.3-41.379,39.092-41.379,39.092-12.175-52.546-24.714-36.369-40.452-78.257s-10.117-87-10.117-87,0.137-8.856.564-17.5a56.884,56.884,0,0,1-12.451,6.823c-0.956,4-2.241,9.017-3.915,15.225-17.757,65.871,35.272,152.211,35.272,152.211-12.133,21.449-52.344,22.557-52.344,22.557,6.506-53.567-10.838-42.66-11.334-87.431s20.229-85.248,20.229-85.248,2.921-7.652,6.131-15.332a56.983,56.983,0,0,1-13.454,1.958c-2.287,3.471-5.248,7.81-9.018,13.181-39.28,55.967-19,155.453-19,155.453-18.764,16.049-56.966,3.324-56.966,3.324,24.48-48.23,4.428-43.9,19.307-86.237s48.247-73.373,48.247-73.373,5.475-6.329,11.186-12.521a56.806,56.806,0,0,1-12.821-2.557c-3.424,2.566-7.9,5.793-13.661,9.824-55.888,39.1-70.842,139.317-70.842,139.317-23.051,8.655-54.486-16.306-54.486-16.306,39.386-36.886,19.127-39.657,47.512-74.3s70.226-52.363,70.226-52.363,7.838-4.377,15.581-8.359a56.96,56.96,0,0,1-12.306-7.5c-3.92,1.154-8.852,2.522-14.975,4.139C139.4,322.149,91.068,410.909,91.068,410.909c-24.708.2-45.85-33.963-45.85-33.963C94.982,355.9,76.81,346.354,115.424,323.64s84.151-24.969,84.151-24.969,7.972-1.266,16.176-2.312a57.3,57.3,0,0,1-8.235-10.39c-4.178-.247-9.475-0.649-16.122-1.244-67.995-6.081-143.81,60.909-143.81,60.909C24.336,337.414,16.23,298.1,16.23,298.1c53.911-2.85,40.14-18.006,84.162-26.217s87.518,5.167,87.518,5.167,8.351,1.607,16.63,3.479a56.553,56.553,0,0,1-4.465-13.509c-3.707-1.612-8.289-3.688-13.909-6.316C124.315,231.774,30,268.966,30,268.966c-19.038-15.673-13.152-55.45-13.152-55.45,51.676,15.717,43.934-3.253,88.153,4.043s80.524,34.735,80.524,34.735,6.8,4.061,13.687,8.467C199.083,259.19,199,257.605,199,256a57.315,57.315,0,0,1,.69-8.865c-2.974-2.814-6.647-6.4-11.137-10.894-48.354-48.4-149.944-45.726-149.944-45.726-12.565-21.263,6.609-56.657,6.609-56.657,43.3,32.484,42.5,11.991,81.659,34s63.956,60.252,63.956,60.252,5.133,6.3,10.175,12.892a56.61,56.61,0,0,1,4.848-12.125c-1.915-3.786-4.279-8.675-7.19-14.912-28.841-61.815-125.04-93.96-125.04-93.96C69.1,95.809,99.155,69.2,99.155,69.2c29.527,45.186,35.774,25.724,64.993,59.689s39.431,78.235,39.431,78.235,2.9,8.326,5.466,16.568a57.234,57.234,0,0,1,9.22-10.4c-0.433-3.948-.9-8.81-1.4-14.773C211.148,130.3,132.05,67.2,132.05,67.2c4.1-24.4,41.454-39.316,41.454-39.316,12.1,52.741,24.665,36.478,40.342,78.511s9.984,87.339,9.984,87.339-0.129,7.576-.5,15.567a56.857,56.857,0,0,1,11.835-6.357c0.949-3.942,2.206-8.834,3.831-14.853C256.818,122.084,203.96,35.662,203.96,35.662,216.105,14.161,256.268,13,256.268,13c-6.564,53.668,10.772,42.72,11.212,87.567s-20.31,85.42-20.31,85.42-2.825,7.405-5.973,14.965a56.984,56.984,0,0,1,14.221-1.938c2.16-3.246,4.847-7.169,8.17-11.9C302.864,131.137,282.6,31.65,282.6,31.65c18.761-16.052,56.951-3.331,56.951-3.331-24.48,48.235-4.433,43.9-19.313,86.242s-48.243,73.381-48.243,73.381-4.81,5.561-10.115,11.359a56.649,56.649,0,0,1,13.371,3.04c3.192-2.359,7.153-5.2,12.043-8.623C343.411,154.442,358.44,53.779,358.44,53.779c23.145-8.7,54.7,16.37,54.7,16.37-39.551,37.054-19.21,39.835-47.715,74.628s-70.518,52.6-70.518,52.6-6.675,3.73-13.8,7.444a56.988,56.988,0,0,1,11,7.071c3.982-1.2,9.042-2.625,15.391-4.329,65.952-17.7,114.367-106.99,114.367-106.99,24.641-.262,45.643,34.012,45.643,34.012-49.678,21.266-31.579,30.812-70.142,53.724S313.38,213.6,313.38,213.6s-8.351,1.356-16.744,2.442a57.135,57.135,0,0,1,7.907,10.083c3.944,0.258,8.775.641,14.676,1.178,68.21,6.212,144.143-60.876,144.143-60.876,23.332,8.284,31.526,47.738,31.526,47.738-54.068,2.772-40.231,18-84.373,26.167S322.726,235.007,322.726,235.007Z" style="stroke: inherit; filter: none; fill: inherit"/>
  </g>
  <use xlink:href="#path" style="stroke: #626262; filter: none; fill: none"/>
  <circle class="cls-3" cx="256" cy="256" r="52.5"/>
  <path class="cls-4" d="M263,250c0.06,0.114-1.417-3.154-6-3-4.792.161-9.048,4.4-9,9,0.056,5.345,3.924,12.087,13,12,7.787-.074,17.317-5.381,18-18,0.617-11.393-8.515-22.008-22-22s-26.207,12.113-26,28c0.148,11.409,6.84,21.384,16,27"/>
  <g>
    <path id="Shape_6_copy" data-name="Shape 6 copy" class="cls-5" d="M39.989,329.27H95.167v9.748H74.1v52H60.872V339.018l-20.883-.09V329.27Zm67.24,0h13.232l0.09,33.489c0,6.418-.353,12.784,2.34,16.429,1.431,1.938,3.528,2.6,6.481,3.069a8.9,8.9,0,0,0,8.821-4.333c2.141-3.629,1.711-10.269,1.71-15.977V329.27h13.142v31.052c0,5.707.591,12.427-.81,17.061-2.028,6.708-6.2,10.735-12.692,13a26.008,26.008,0,0,1-11.791,1.445c-9.364-1.434-15.522-4.352-18.723-11.826-2.062-4.814-1.8-11.853-1.8-18.866V329.27Zm62.739,0c16.855-.117,33.208-1.744,42.666,5.867,4.073,3.278,6.991,11.917,4.321,19.047a17.719,17.719,0,0,1-11.432,10.742l10.622,18.5c1.025,1.731,3.953,5.464,4.14,7.492l-0.09.09H206.063Q199.583,379.46,193.1,367.9h-9.9v23.109H169.968V329.27Zm62.469,0c16.79-.111,37.2-2.169,44.556,7.311,3.158,4.071,4.594,11.125,1.351,16.339a14.78,14.78,0,0,1-4.951,4.784l-2.971,1.444c11.847,1.811,15.3,18.915,6.121,26.269-9.415,7.54-27.4,5.615-44.106,5.6V329.27Zm65.53,0h39.605v9.658H324.25v42.426h13.322v9.659H297.967v-9.659h13.051V338.928l-13.051-.09V329.27Zm59.228,0h13.412q9.36,19.721,18.723,39.447h0.09V329.27h13.322v61.743H393.02c-1.12,0-2.786.189-3.6-.18q-9.36-19.677-18.723-39.357h-0.09q-0.045,19.766-.09,39.537l-13.322-.09V329.27Zm63.729,0h46l-0.09,9.748H434.156v15.436h28.085v9.479H434.156v17.421h32.855v9.659H420.924V329.27ZM183.2,338.928v19.318c11.226,0.118,19.818,1.124,21.423-8.756a9.235,9.235,0,0,0-.72-4.694C201.137,338.06,192.681,338.866,183.2,338.928Zm62.559,0.09v16.068c9.308,0.1,23.1,1.286,21.153-9.478C265.473,337.65,255.079,338.956,245.759,339.018Zm0,24.734v17.6c10.905,0.107,21.185,1.638,22.773-7.943a8.555,8.555,0,0,0-.54-3.972C265.5,362.305,255.263,363.694,245.759,363.752Z" stroke="rgba(0,0,0,1)" stroke-width="3"/>
  </g>  
</svg>