<svg id="Flappy_Icon" data-name="Flappy Icon" xmlns="http://www.w3.org/2000/svg" width="450" height="336" viewBox="0 0 450 336">
<defs>
    <style>
      .cls-1 {
        fill: #e4e7ec;
      }

      .cls-1, .cls-2 {
        stroke: #484848; /* Ships */
      }

      .cls-1, .cls-10, .cls-2, .cls-3, .cls-5, .cls-6, .cls-7, .cls-8, .cls-9 {
        stroke-linejoin: round;
      }

      .cls-1, .cls-3, .cls-5, .cls-8 {
        stroke-width: 2px;
      }

      .cls-1, .cls-10, .cls-2, .cls-4, .cls-7 {
        fill-rule: evenodd;
      }

      .cls-2, .cls-3, .cls-7 {
        fill: #fff;
      }

      .cls-2, .cls-6, .cls-7, .cls-9 {
        stroke-width: 2px;
      }

      .cls-3 {
        stroke: #484848; /* Projectile */
      }

      .cls-4 {
        fill: #a1a3a6;
      }

      .cls-5, .cls-6 {
        stroke: silver; /* None? */
      }

      .cls-7 {
        stroke: #c0c0c0; /* Lower Text */
      }

      .cls-8, .cls-9 {
        stroke: black; /* None? */
      }

      .cls-10 {
        fill: silver;
            stroke: #43484d; /* Upper Text */

 
    stroke-width: 2px;
      }
    </style>
  </defs>
  <g>
    <path class="cls-1" d="M260,165.464l4.916,14.326H253.855Zm32.334,61.756L260,213.526,227.666,227.22,260,150.78l25.542,60.384Z" transform="translate(-33 -17)"/>
    <g>
      <path class="cls-2" d="M218.5,247.325l-16.284-6.564-16.045,7.128,15.5-38.5,13.3,29.965Z" transform="translate(-33 -17)"/>
      <path class="cls-2" d="M178.5,218.325l-16.284-6.564-16.045,7.128,15.5-38.5,13.3,29.965Z" transform="translate(-33 -17)"/>
      <path class="cls-2" d="M138.5,179.325l-16.284-6.564-16.045,7.128,15.5-38.5,13.3,29.965Z" transform="translate(-33 -17)"/>
      <path class="cls-2" d="M98.5,138.325l-16.284-6.564-16.045,7.128,15.5-38.5,13.3,29.965Z" transform="translate(-33 -17)"/>
    </g>
    <g>
      <path class="cls-2" d="M300.5,247.325l16.284-6.564,16.045,7.128-15.5-38.5-13.3,29.965Z" transform="translate(-33 -17)"/>
      <path class="cls-2" d="M340.5,218.325l16.284-6.564,16.045,7.128-15.5-38.5-13.3,29.965Z" transform="translate(-33 -17)"/>
      <path class="cls-2" d="M380.5,179.325l16.284-6.564,16.045,7.128-15.5-38.5-13.3,29.965Z" transform="translate(-33 -17)"/>
      <path class="cls-2" d="M420.5,138.325l16.284-6.564,16.045,7.128-15.5-38.5-13.3,29.965Z" transform="translate(-33 -17)"/>
    </g>
  </g>
  <g>
    <circle class="cls-3" cx="227" cy="10" r="7"/>
    <path class="cls-4" d="M259,35h2v86h-2V35Z" transform="translate(-33 -17)"/>
  </g>
  <g class="cls-5">
    <g class="cls-6">
      <path class="cls-7" d="M116.394,340.711l3.15-7.759q0.233-.535.486-1.256t0.486-1.547q0.252,0.827.5,1.539t0.486,1.231l3.168,7.792h-8.28ZM123,326.131h-4.932l-10.242,23.426h3.78a1.677,1.677,0,0,0,1.026-.308,1.578,1.578,0,0,0,.558-0.681l1.944-4.779h10.782l1.944,4.779a1.8,1.8,0,0,0,.594.705,1.718,1.718,0,0,0,1.026.284h3.744Zm32.894,19.489a5.215,5.215,0,0,1-1.872-1.191,5.139,5.139,0,0,1-1.17-1.855,6.9,6.9,0,0,1-.405-2.43V326.131H147.6v14.03a9.849,9.849,0,0,0,.747,3.863,8.726,8.726,0,0,0,2.142,3.062,9.869,9.869,0,0,0,3.393,2.009,14.46,14.46,0,0,0,9.018,0,9.869,9.869,0,0,0,3.393-2.009,8.726,8.726,0,0,0,2.142-3.062,9.849,9.849,0,0,0,.747-3.863v-14.03h-4.842v14.03a6.912,6.912,0,0,1-.405,2.43,5.12,5.12,0,0,1-1.161,1.846,5.176,5.176,0,0,1-1.863,1.183A7.7,7.7,0,0,1,155.894,345.62Zm36.063-17.285a9.824,9.824,0,0,0-3.312-1.815,13.362,13.362,0,0,0-4.248-.648,10.76,10.76,0,0,0-3.636.567,8.229,8.229,0,0,0-2.664,1.507,6.462,6.462,0,0,0-1.647,2.154,5.841,5.841,0,0,0-.567,2.5,6.33,6.33,0,0,0,.513,2.7,5.39,5.39,0,0,0,1.359,1.823,7.211,7.211,0,0,0,1.926,1.183,20.321,20.321,0,0,0,2.2.777q1.116,0.324,2.2.6a10.771,10.771,0,0,1,1.926.672,4.1,4.1,0,0,1,1.359.98,2.2,2.2,0,0,1,.513,1.507,3.023,3.023,0,0,1-1.134,2.535,5.108,5.108,0,0,1-3.2.883,7.137,7.137,0,0,1-2.313-.332,10.319,10.319,0,0,1-1.683-.737q-0.72-.4-1.242-0.738a1.84,1.84,0,0,0-.972-0.332,1.287,1.287,0,0,0-.612.154,1.482,1.482,0,0,0-.468.381l-1.422,2.09A9.914,9.914,0,0,0,176.549,348a12.938,12.938,0,0,0,2.079.972,14,14,0,0,0,2.313.624,13.673,13.673,0,0,0,2.448.219,11.46,11.46,0,0,0,3.834-.592,8.467,8.467,0,0,0,2.835-1.62,6.839,6.839,0,0,0,1.764-2.413,7.37,7.37,0,0,0,.6-2.973,5.476,5.476,0,0,0-.513-2.479,5.339,5.339,0,0,0-1.359-1.725,7.712,7.712,0,0,0-1.926-1.166,22.139,22.139,0,0,0-2.214-.81q-1.134-.348-2.214-0.656a13.576,13.576,0,0,1-1.926-.7,4.243,4.243,0,0,1-1.359-.94,1.942,1.942,0,0,1-.513-1.377,2.79,2.79,0,0,1,.252-1.19,2.462,2.462,0,0,1,.765-0.932,3.841,3.841,0,0,1,1.269-.607,6.367,6.367,0,0,1,1.764-.219,6.648,6.648,0,0,1,1.935.251,9.278,9.278,0,0,1,1.431.559q0.612,0.308,1.053.559a1.678,1.678,0,0,0,.819.251,1.1,1.1,0,0,0,.6-0.154,1.549,1.549,0,0,0,.459-0.494Zm23.328,1.263v-3.467H198.869v23.426h16.416v-3.483H203.729v-6.626h9.108v-3.354h-9.108v-6.5h11.556Zm22.932,0v-3.467H221.8v23.426h4.86v-9.542h9.756v-3.483h-9.756V329.6h11.556Zm14.157,16.022a5.206,5.206,0,0,1-1.872-1.191,5.125,5.125,0,0,1-1.17-1.855,6.9,6.9,0,0,1-.405-2.43V326.131h-4.842v14.03a9.832,9.832,0,0,0,.747,3.863,8.7,8.7,0,0,0,2.142,3.062,9.859,9.859,0,0,0,3.393,2.009,14.46,14.46,0,0,0,9.018,0,9.878,9.878,0,0,0,3.393-2.009,8.752,8.752,0,0,0,2.142-3.062,9.867,9.867,0,0,0,.747-3.863v-14.03h-4.842v14.03a6.912,6.912,0,0,1-.4,2.43,5.12,5.12,0,0,1-1.161,1.846,5.176,5.176,0,0,1-1.863,1.183A7.7,7.7,0,0,1,252.374,345.62Zm25.838,0.34V326.131H273.37v23.426h15.246v-3.6h-10.4Zm38.808-8.148v2.462a0.743,0.743,0,0,0,.261.575,1.046,1.046,0,0,0,.729.235h3.276v4.244a13.534,13.534,0,0,1-2.214.746,12.013,12.013,0,0,1-6.228-.3,7.778,7.778,0,0,1-2.8-1.669,7.444,7.444,0,0,1-1.8-2.673,9.5,9.5,0,0,1-.639-3.588,9.292,9.292,0,0,1,.594-3.4,7.25,7.25,0,0,1,4.347-4.277,9.856,9.856,0,0,1,3.483-.583,13.4,13.4,0,0,1,2.1.146,11.892,11.892,0,0,1,1.638.372,8.2,8.2,0,0,1,1.323.535l1.188,0.616a1.645,1.645,0,0,0,1.134.234,1.315,1.315,0,0,0,.846-0.575l1.386-1.976a12.717,12.717,0,0,0-1.782-1.247,11.594,11.594,0,0,0-2.151-.964,16.257,16.257,0,0,0-2.556-.624,18.268,18.268,0,0,0-2.961-.227,16.939,16.939,0,0,0-5.616.875,12.318,12.318,0,0,0-4.257,2.462A10.882,10.882,0,0,0,303.61,333a12.047,12.047,0,0,0-.954,4.844,11.6,11.6,0,0,0,.99,4.811,10.847,10.847,0,0,0,2.817,3.791,13.178,13.178,0,0,0,4.41,2.479,17.608,17.608,0,0,0,5.769.891,18.276,18.276,0,0,0,4.8-.608,14.468,14.468,0,0,0,4.221-1.919v-9.477h-8.64Zm20.718,2.9,3.15-7.759q0.233-.535.486-1.256t0.486-1.547q0.252,0.827.5,1.539t0.486,1.231l3.168,7.792h-8.28Zm6.606-14.58h-4.932L329.17,349.557h3.78a1.677,1.677,0,0,0,1.026-.308,1.578,1.578,0,0,0,.558-0.681l1.944-4.779H347.26l1.944,4.779a1.8,1.8,0,0,0,.594.705,1.718,1.718,0,0,0,1.026.284h3.744Zm39.725,0c-0.216,0-.4.006-0.558,0.017a1.589,1.589,0,0,0-.423.081,1.013,1.013,0,0,0-.351.21,1.648,1.648,0,0,0-.306.389L374.745,339.8q-0.306.519-.576,1.077t-0.522,1.159q-0.252-.584-0.513-1.134t-0.567-1.069l-7.794-13.009a1.8,1.8,0,0,0-.3-0.389,0.927,0.927,0,0,0-.342-0.21,1.589,1.589,0,0,0-.423-0.081c-0.156-.011-0.342-0.017-0.558-0.017H359.5v23.426h4.266V334.426c0-.292-0.012-0.61-0.036-0.956s-0.054-.7-0.09-1.053l7.956,13.349a1.848,1.848,0,0,0,1.71.956h0.684a1.848,1.848,0,0,0,1.71-.956l7.866-13.3a19.283,19.283,0,0,0-.108,1.96v15.131h4.266V326.131h-3.654Zm28.1,3.467v-3.467H395.751v23.426h16.416v-3.483H400.611v-6.626h9.108v-3.354h-9.108v-6.5h11.556Z" transform="translate(-33 -17)"/>
    </g>
  </g>
  <g class="cls-8">
    <g class="cls-9">
      <path class="cls-10" d="M58.22,283.71v-4.623H36.331v31.235h6.48V297.6H55.82v-4.644H42.812V283.71H58.22Zm14.712,21.817v-26.44H66.476v31.235H86.805v-4.8H72.933Zm28.752-7,4.2-10.347q0.311-.712.648-1.674t0.648-2.063q0.336,1.1.672,2.052t0.648,1.642l4.224,10.39H101.685Zm8.809-19.441h-6.576L90.261,310.322H95.3a2.234,2.234,0,0,0,1.368-.41A2.1,2.1,0,0,0,97.413,309l2.592-6.372h14.377L116.974,309a2.4,2.4,0,0,0,.792.94,2.3,2.3,0,0,0,1.368.378h4.993Zm26.665,15.7V283.58h4.824a11.407,11.407,0,0,1,3.12.378,5.971,5.971,0,0,1,2.184,1.091,4.489,4.489,0,0,1,1.3,1.728,5.739,5.739,0,0,1,.432,2.268,6.319,6.319,0,0,1-.432,2.387,4.611,4.611,0,0,1-1.308,1.814,6.035,6.035,0,0,1-2.2,1.145,10.708,10.708,0,0,1-3.1.4h-4.824Zm-6.457-15.7v31.235h6.457v-11h4.824a20.757,20.757,0,0,0,5.916-.756,12.125,12.125,0,0,0,4.212-2.117,8.687,8.687,0,0,0,2.521-3.251,10.14,10.14,0,0,0,.84-4.158,9.926,9.926,0,0,0-.8-4.018,8.2,8.2,0,0,0-2.461-3.153,12.028,12.028,0,0,0-4.2-2.053,21.888,21.888,0,0,0-6.024-.734H130.7Zm39.146,15.7V283.58h4.824a11.407,11.407,0,0,1,3.12.378,5.971,5.971,0,0,1,2.184,1.091,4.489,4.489,0,0,1,1.3,1.728,5.739,5.739,0,0,1,.432,2.268,6.319,6.319,0,0,1-.432,2.387,4.611,4.611,0,0,1-1.308,1.814,6.035,6.035,0,0,1-2.2,1.145,10.708,10.708,0,0,1-3.1.4h-4.824Zm-6.457-15.7v31.235h6.457v-11h4.824a20.757,20.757,0,0,0,5.916-.756,12.125,12.125,0,0,0,4.212-2.117,8.687,8.687,0,0,0,2.521-3.251,10.14,10.14,0,0,0,.84-4.158,9.926,9.926,0,0,0-.8-4.018,8.194,8.194,0,0,0-2.461-3.153,12.028,12.028,0,0,0-4.2-2.053,21.888,21.888,0,0,0-6.024-.734H163.391Zm59.355,0h-5.712a2.129,2.129,0,0,0-1.344.41,2.966,2.966,0,0,0-.792.886l-6.313,10.433q-0.528.93-.936,1.75t-0.72,1.642q-0.336-.821-0.756-1.642t-0.972-1.75l-6.336-10.433a3.188,3.188,0,0,0-.828-0.929,2.177,2.177,0,0,0-1.332-.367h-5.688l12.648,19.139v12.1H210.1v-12.1Zm51.963,0q-0.432,0-.744.022a2.172,2.172,0,0,0-.564.108,1.351,1.351,0,0,0-.468.28,2.213,2.213,0,0,0-.408.519l-10.249,17.3q-0.408.692-.768,1.437t-0.7,1.544q-0.336-.777-0.684-1.512t-0.756-1.426L248.98,280.016a2.492,2.492,0,0,0-.4-0.519,1.236,1.236,0,0,0-.456-0.28,2.181,2.181,0,0,0-.564-0.108c-0.209-.015-0.456-0.022-0.744-0.022h-4.873v31.235h5.689V290.147q0-.584-0.048-1.275c-0.033-.46-0.072-0.929-0.12-1.4l10.608,17.8a2.463,2.463,0,0,0,2.28,1.275h0.912a2.463,2.463,0,0,0,2.28-1.275l10.489-17.734a25.718,25.718,0,0,0-.144,2.614v20.175h5.688V279.087h-4.872Zm22.873,19.441,4.2-10.347q0.312-.712.648-1.674t0.648-2.063q0.336,1.1.672,2.052t0.648,1.642l4.224,10.39h-11.04Zm8.808-19.441h-6.576l-13.657,31.235h5.04a2.233,2.233,0,0,0,1.368-.41A2.108,2.108,0,0,0,293.31,309l2.592-6.372h14.376L312.871,309a2.378,2.378,0,0,0,.792.94,2.292,2.292,0,0,0,1.368.378h4.992Zm26.665,14.862V283.58h4.128a9.016,9.016,0,0,1,5.316,1.274,4.254,4.254,0,0,1,1.741,3.651,5.413,5.413,0,0,1-.432,2.182A4.584,4.584,0,0,1,342.5,292.4a6.332,6.332,0,0,1-2.232,1.134,11.007,11.007,0,0,1-3.18.411h-4.032Zm11.953,4.838a5.652,5.652,0,0,0-.96-1.047,6.369,6.369,0,0,0-1.153-.767,12.7,12.7,0,0,0,3.253-1.361,9.721,9.721,0,0,0,2.4-2.009,8.368,8.368,0,0,0,1.488-2.549,8.946,8.946,0,0,0-.252-6.621,7.357,7.357,0,0,0-2.388-2.84,12.141,12.141,0,0,0-4.153-1.847,24.33,24.33,0,0,0-6.06-.659H326.6v31.235h6.456v-12.2h2.76a3.467,3.467,0,0,1,1.452.237,2.467,2.467,0,0,1,.9.8l7.3,10a2.633,2.633,0,0,0,2.4,1.166H353.7Zm21.888-19.7H360.44v31.235H366.9V296.584h2.04a4.9,4.9,0,0,1,1.728.237,2.522,2.522,0,0,1,1.056.821l9.817,11.535a2.575,2.575,0,0,0,.948.854,3.891,3.891,0,0,0,1.716.291h5.688L377.841,295.7a6.014,6.014,0,0,0-1.212-1.22,5.08,5.08,0,0,0-1.428-.724,6.354,6.354,0,0,0,2.136-1.685l11.688-12.982h-5.568a4.437,4.437,0,0,0-1.668.27,3.423,3.423,0,0,0-1.26.961l-9.577,10.909a2.54,2.54,0,0,1-1.032.723,4.3,4.3,0,0,1-1.512.227H366.9v-13.09Zm51.314,4.623v-4.623H396.321v31.235H418.21v-4.644H402.8v-8.835h12.145v-4.471H402.8V283.71H418.21Zm32.93-4.623H423.754v4.774h10.465v26.461h6.456V283.861H451.14v-4.774Zm27.553,2.938a13.117,13.117,0,0,0-4.417-2.42,17.844,17.844,0,0,0-5.664-.864,14.346,14.346,0,0,0-4.848.756,11.008,11.008,0,0,0-3.552,2.009,8.632,8.632,0,0,0-2.2,2.873,7.787,7.787,0,0,0-.756,3.327,8.441,8.441,0,0,0,.684,3.6,7.185,7.185,0,0,0,1.812,2.431,9.586,9.586,0,0,0,2.568,1.576,26.818,26.818,0,0,0,2.928,1.037q1.488,0.432,2.928.8a14.545,14.545,0,0,1,2.568.9,5.451,5.451,0,0,1,1.812,1.307,2.929,2.929,0,0,1,.684,2.009,4.028,4.028,0,0,1-1.512,3.38,6.813,6.813,0,0,1-4.272,1.178,9.507,9.507,0,0,1-3.084-.443,13.673,13.673,0,0,1-2.244-.983q-0.96-.54-1.656-0.983a2.451,2.451,0,0,0-1.3-.443,1.712,1.712,0,0,0-.816.2,1.965,1.965,0,0,0-.624.508l-1.9,2.787a13.15,13.15,0,0,0,2.3,1.684,17.08,17.08,0,0,0,2.772,1.3,18.5,18.5,0,0,0,3.084.832,18.2,18.2,0,0,0,3.264.292,15.3,15.3,0,0,0,5.112-.789,11.283,11.283,0,0,0,3.781-2.16,9.136,9.136,0,0,0,2.352-3.218,9.826,9.826,0,0,0,.8-3.964,7.3,7.3,0,0,0-.684-3.3,7.122,7.122,0,0,0-1.812-2.3,10.371,10.371,0,0,0-2.568-1.555,29.964,29.964,0,0,0-2.953-1.08q-1.512-.463-2.952-0.875a17.819,17.819,0,0,1-2.568-.929,5.662,5.662,0,0,1-1.812-1.253,2.588,2.588,0,0,1-.684-1.836,3.722,3.722,0,0,1,.336-1.587,3.275,3.275,0,0,1,1.02-1.242,5.122,5.122,0,0,1,1.692-.81,8.477,8.477,0,0,1,2.352-.292,8.851,8.851,0,0,1,2.58.335,12.3,12.3,0,0,1,1.908.745q0.816,0.411,1.4.745a2.221,2.221,0,0,0,1.092.335,1.475,1.475,0,0,0,.8-0.2,2.085,2.085,0,0,0,.612-0.659Z" transform="translate(-33 -17)"/>
    </g>
  </g>
</svg>