<svg xmlns="http://www.w3.org/2000/svg" class="mpld3-figure" viewBox="80 0 380 640">
<g class="mpld3-baseaxes">
<g class="mpld3-axes" transform="translate(120 76.8)" clip-path="url(#fig_el59361543196542600289996682_ax1_clip)" pointer-events="all" style="-webkit-tap-highlight-color:transparent">
<path class="mpld3-axesbg" d="M0 0h311.6v492.8H0z" fill="#212833"/>
<path class="mpld3-path" d="M14.2 478.1H24.4l.5-33.5.6.3h.6l.6-.1.5-.2.6.1.6-.3.5-.2.6-.4.6-.2.5-.2.6-.1.6-.1.5-.1.6.1.6.1.5.1.6.1.6.3.5.3.6.1h1.1l.6-.3.6-.2.5-.1.6.1.6-.1.5-.3.6-.4.6-.6.5-.4.6-.3.6-.4.5-.4.6-.5.6-.3.6-.3.5-2 .6-2.2.6-2.1.5-2 .6-1.7.6-1.7.5-1.9.6-2 .6-2 .5-1.8.6-1.8.6-1.8.5-1.8.6-1.9.6-2.2.5-2.1.6-2.4.6-2.3.5-2.7.6-3.1.6-1.4.5-1.2.6-.8.6-1 .5-1 .6-.3.6-.3.5-.5.6-.4.6-.4.5-.7.6-.5.6-.4.5-.7.6-.6.6-.9.6-.8.5-.6.6-.3.6.3.5.3.6.1.6-.3.5.1.6-.4.6-1 .5-1 .6-1.1.6-1.3.5-1.3.6-1.2.6-1.7.5-2 .6-1.9.6-1.7.5-1.5.6-1.5.6-2.2.5-2.7.6-2.7.6-3 .5-3.2.6-3.3.6-3.9.5-3.8.6-2.7.6-3.2.5-2.3.6-2.9.6-2.3.6-1.4.5-.9.6-1.2.6-1.6.5-2.3.6-2.4.6-2.2.5-2.1.6-1.7.6-1.9.5-1.7.6-1.8.6-1.4.5-1 .6-.7.6-1.5.5-1.4.6-2.1.6-1.5.5-2 .6-3.3.6-3.7.5-3 .6-2.5.6-1.9.5-1.6.6-1.4.6-1.7.5-1.5.6-.8h.6l.5-.5.6.3.6 1.1.6.7.5 1.9.6 1.9.6 1.8.5 1.4.6 2.1.6 2.5.5 2.3.6 2.4.6 2 .5 2.2.6 1.9.6.6.5.9.6.3.6.3.5-.3.6 1.3.6.6.5-1.3.6-1.8.6-2.8.5-2.8.6-2.3.6-1.7.5-2.6.6-2.8.6-2.2.5-2.7.6-2.3.6-2.5.5-2.3.6-1 .6-.9.6-.4.5-.6.6-1 .6-1.8.5-2 .6-1.3.6-.5.5-.7.6-.6.6-.9.5-1 .6-1.2.6-1.4.5-1.5.6-1.2.6-1.1.5-1.2.6-1.4.6-1.9.5-2 .6-1.9.6-2.2.5-2.1.6-2.5.6-1.8.5-1.7.6-.7.6-1.2.5-.5.6-1 .6-.9.5-.7h1.2l.6-.3.5-.8.6-.8.6-.8.5-1.3.6-1.3.6-1.6.5-1.7.6-1.6.6-.9.5-1.2.6-1.3.6-2.4.5-2.5.6-2.1.6-1.7.5-1.1.6-1 .6-1.5.5-1.9.6-1.6.6-1.6.5-1.7.6-2 .6-1.4.5-1.1.6-1.1.6-1.1.5-.5.6-1.1.6-1 .5-1.1.6-.8.6-.6.6-1.3.5-1.3.6-2.2.6-2.2.5-2.9.6-2.5.6-2.7.5-2.8.6-1.9.6-1 .5-.8.6-.8.6-1.3.5-1 .6-1.6.6-1.2.5-.4.6-.9.6-.6.5-.6.6-.2.6-.4.5-.7.6-.6.6-.2h.5l.6.1.6 1 .5.6.6.7.6.9.5 1.1.6 1.7.6 3.4.6 3.9.5 2.7.6 2.1.6 1.7.5 1.4.6 2.5.6 2.2.5 2.1.6 3 .6 4.5.5 3.4.6 5.2.6 6.7.5 6.4.6 5.2.6 3.5.5 3.2.6 3.5.6 3.3h.5l.6-.6.6 1.2.5 1.8.6 2.7.6 3.4.5 2.2.6 2.4.6 4 .5 4 .6 2.1.6 4.1.5.9.6-.6.6-2.2.5-1.1.6-.3.6-1.6.6-.5.5-.9.6 1.9.6 1.6.5 1 .6-.4.6-.4.5.1.6 1.5.6.6.5.2.6.5.6 2 .5 2.3.6 1.6.6 1.8.5 2.9.6 2.5.6 2.1.5 4 .6 1.3.6 1 .5-.4.6-.2.6-.2.5.3.6.6.6-1.2.5-2.3.6-2.1.6-2.9.5-2.5.6-3.8.6-4.5.6-2.9.5-2.5.6-1.7.6-2.5.5-2.6.6-1.8.6-.8.5-.5.6.3.6.6.5 1 .6.7.6-.3.5.5.6.9.6 1.3.5.9.6.2.6.3.5.3.6.6h.6l.5-.7.6.5.6.6.5-1 .6-.8.6-.2.5.2.6-.1.6-1.2.5-1.2.6-.7.6-.7.6-1.3.5-1.9.6-2 .6-2.5.5-2.9.6-1.9.6-2.1.5-2.1.6-1.8.6-2 .5-1.5.6-1.8.6-1.7.5-2.2.6-2.8.6-3.2.5-2.6.6-2.3.6-2.3.5-2.3.6-1.9.6-1.5.5-1.4.6-1 .6-.6.5-1.8.6-2.2.6-1.7.5-1.9.6-2.6.6-2.3.5-1.6.6-1.4.6-1.2.6-2.1.5-1.6.6-1.1.6-1.1.5-.8.6-.7.6.3.5.1.6-.1.6-.6.5-.1.6.4.6.9.5.6.6 1.3.6 1.8.5 1.5.6 1.6.6 1.3.5 1.9.6 3.9.6 3.2.5 2.6.6 2.4.6 1.4.5.4.6-.6.6-.2h.5l.6.6.6-.3.5-.6.6-.7.6-.9.6-1.4.5-1.3.6-.6.6-1.1.5-1.3.6-1.7.6-3.4.5-2.9.6-2.9.6-2.8.5-2.1.6-1.9.6-2.2.5-2.1.6-2 .6-2.2.5-1.8.6-1.4.6-1 .5-.6.6-1.1.6-1.2.5-1.7.6-1.1.6-.6.5-.3.6.4.6.9.5 1.3.6 1.7v23.6h0l-.6-2.2-.5-2.4-.6-1.5-.6-.8-.5-.2h-.6l-.6.9-.5 1.6-.6.7-.6.4-.5.7-.6.6-.6 1.4-.5 1.7-.6 1.9-.6 2.3-.5 1.6-.6 2.2-.6 2.4-.5 3-.6 3.2-.6 3.9-.5 3.9-.6 5.7-.6 1.5-.5 1.5-.6 1.3-.6.1-.5 1.4-.6 2.1-.6.6-.6.8-.5 1.2-.6.8-.6.2-.5 1.4-.6.9-.6.4-.5-1.1-.6-2.1-.6-2.9-.5-2.5-.6-3.3-.6-5.7-.5-1.1-.6-1.2-.6-1.2-.5-1.6-.6-.3-.6-1.9-.5-.4-.6-.4-.6.2-.5-.8-.6-.3-.6-1.2-.5-.3-.6-.8-.6-.9-.5.3-.6 1-.6.5-.5.3-.6 1.8-.6.5-.6 1-.5 1.2-.6 2.1-.6 1.3-.5 2.8-.6 1.8-.6 2-.5 1.5-.6 1.8-.6 1.8-.5 1.6-.6 1.9-.6 2.6-.5 2.4-.6 2.3-.6 2.5-.5 3.5-.6 4.1-.6 3.3-.5 2.4-.6 1.7-.6 2.4-.5 2-.6 1.5-.6 1.5-.5 2-.6 1.4-.6.9-.5 2.3-.6 2-.6 2.3-.5 1.2-.6 1.5-.6.7-.6 1.7-.5 1.1-.6.2-.6-.2-.5-.5-.6.2-.6 1.6-.5 1.2-.6.5-.6 1.4-.5.7-.6.3-.6-.5-.5.1-.6.5-.6 1.4-.5-1.6-.6-1.1-.6-1.1-.5 1-.6.4-.6-.7-.5-.2-.6-.9-.6.8-.5 1.4-.6 2.5-.6 1.6-.5 4.1-.6 1.2-.6 2.7-.5 4.6-.6 6.8-.6 6.4-.6 5.6-.5 2.6-.6 5.2-.6 2.9-.5 3.6-.6.8-.6-.7-.5.2-.6.6-.6 1.9-.5.8-.6.9-.6-1.3-.5-3.1-.6-4.8-.6-2.3-.5-1.7-.6-3.5-.6-3.7-.5-4.4-.6-4.4-.6 1.2-.5-.9-.6-.8-.6-.4-.5.3-.6.8-.6 1.4-.5-1.7-.6-2.2-.6-.5-.5-1.2-.6-.2-.6 1-.6 2.2-.5 1.9-.6 1.4-.6 4.4-.5-.2-.6-.8-.6.3-.5-5.7-.6-4.3-.6-2.2-.5-3.6-.6-4.1-.6-2.2-.5-2-.6.1-.6.9-.5-1.1-.6-3.6-.6-3.1-.5-2.5-.6-4.6-.6-6.2-.5-7.5-.6-11.2-.6-7.5-.5-6.4-.6-6.9-.6-3.9-.5-1.1-.6-2.6-.6-3.5-.5-1.4-.6-2.8-.6-2-.5-4-.6-5.6-.6-4.8-.6-.2-.5-2.3-.6-1.9-.6-.2-.5-.3-.6-.9-.6-.4-.5.4-.6 1.2-.6-.1-.5-.1-.6-2.2-.6-.7-.5 1-.6.1-.6.2-.5-.6-.6.8-.6 2.2-.5.4-.6-.8-.6.2-.5.8-.6.2-.6 1.3-.5 2.6-.6 2.7-.6 3.2-.5 1.8-.6 4.1-.6 3.4-.5 3.1-.6 2-.6 1.1-.6 1.1-.5 2.1-.6.4-.6 1.3h-.5l-.6 2.5-.6 1-.5 1.2-.6 1.6-.6 1.4-.5 1.5-.6 1.3-.6 2-.5.9-.6 1.5-.6.1-.5.1-.6 1.3-.6 2.4-.5 2.2-.6 3.2-.6.3-.5 2-.6.7-.6 2.2-.5.5-.6 1.1-.6 1.1-.5.3-.6.2-.6.6-.5.4-.6.2-.6-.1-.6.3h-.5l-.6.3-.6-.3-.5-.4-.6.5-.6-.6-.5 1.4-.6 1.9-.6 2.2-.5 1.3-.6 1.5-.6 2.3-.5 1.9-.6 2.2-.6 1.5-.5 1.1-.6.9-.6 1-.5 1.1-.6 1-.6 1.2-.5 1.8-.6 1.1-.6 1.4-.5.9-.6 2.1-.6 2.5-.5 2.7-.6 4-.6 1.8-.5 1.8-.6.7-.6 1.4-.6 2.4-.5 2.7-.6 3.2-.6 2.5-.5 2.7-.6 2.6-.6 3.2-.5 3.2-.6 1.8-.6 4.2-.5 3.6-.6 3.9-.6 3.4-.5 1.9-.6.1-.6-1.7-.5.4-.6-.8-.6-.4-.5-.2-.6-1.4-.6-2-.5-2.7-.6-2.3-.6-1.8-.5-2.5-.6-2.8-.6-3.3-.5-1.6-.6-3.9-.6-2.2-.5-2.1-.6-2.4-.6-3.3-.6-2.5-.5-1.3-.6-1-.6.9-.5 1.1-.6 1.5-.6.6-.5 2.2-.6 3.4-.6 3.6-.5 3.7-.6 7.3-.6 4.9-.5 2.9-.6 4.4-.6 6.4-.5 2-.6 1.8-.6-.6-.5 2.6-.6 1.9-.6 1.9-.5 2.1-.6 2.7-.6 2.1-.5 1.9-.6 2.2-.6 1.9-.5 1.3-.6 1.7-.6.5-.5-2.5-.6-.3-.6 1.7-.6-.2-.5-1.7-.6 1-.6 1.3-.5 3.9-.6 2.4-.6 2.4-.5 2.7-.6 2.8-.6 1.2-.5 2-.6 1.3-.6 1.5-.5 1.3-.6 1.1-.6.9-.5 1.1-.6 1.1-.6 1-.5 1.2-.6.9-.6 1.1-.5 1.8-.6 1.8-.6.5-.5.1-.6 1.8h-.6l-.5-.3-.6.6-.6.6-.5.6-.6.8-.6.8-.6.4-.5.4-.6.6-.6.8-.5.3-.6.5-.6.6-.5.1-.6-.3h-.6l-.5.5-.6.8-.6-.5-.5 1.7-.6 3-.6 2.4-.5 2.5-.6 2.5-.6 2.7-.5 2-.6 2.3-.6 2.2-.5 1.6-.6 1.5-.6 1.7-.5 1.9-.6 1.7-.6 2.1-.5 1.6-.6 1.5-.6 1.6-.5 2.1-.6 2.3-.6 1.7H46l-.6.1-.6.1-.6.6-.5.2-.6.3-.6.3-.5.1-.6.6-.6 1-.5.4-.6-.1-.6.4-.5-.1-.6.1h-.6l-.5-.1-.6-.2h-.6l-.5-.6-.6-.2H34l-.5.3-.6-.3-.6-.2-.5.3-.6.1-.6.1-.5.4-.6-.2-.6.5-.5.3-.6-.3h-.6l-.5.6-.6.4-.6.1-.6-.4-.5 23.9H14.2z" fill="#ffa718" stroke="#ffa718" vector-effect="non-scaling-stroke"/>
<path class="mpld3-path" d="M14.2 478.1H297.4V180.3h0l-.6-2.2-.5-2.4-.6-1.5-.6-.8-.5-.2h-.6l-.6.9-.5 1.6-.6.7-.6.4-.5.7-.6.6-.6 1.4-.5 1.7-.6 1.9-.6 2.3-.5 1.6-.6 2.2-.6 2.4-.5 3-.6 3.2-.6 3.9-.5 3.9-.6 5.7-.6 1.5-.5 1.5-.6 1.3-.6.1-.5 1.4-.6 2.1-.6.6-.6.8-.5 1.2-.6.8-.6.2-.5 1.4-.6.9-.6.4-.5-1.1-.6-2.1-.6-2.9-.5-2.5-.6-3.3-.6-5.7-.5-1.1-.6-1.2-.6-1.2-.5-1.6-.6-.3-.6-1.9-.5-.4-.6-.4-.6.2-.5-.8-.6-.3-.6-1.2-.5-.3-.6-.8-.6-.9-.5.3-.6 1-.6.5-.5.3-.6 1.8-.6.5-.6 1-.5 1.2-.6 2.1-.6 1.3-.5 2.8-.6 1.8-.6 2-.5 1.5-.6 1.8-.6 1.8-.5 1.6-.6 1.9-.6 2.6-.5 2.4-.6 2.3-.6 2.5-.5 3.5-.6 4.1-.6 3.3-.5 2.4-.6 1.7-.6 2.4-.5 2-.6 1.5-.6 1.5-.5 2-.6 1.4-.6.9-.5 2.3-.6 2-.6 2.3-.5 1.2-.6 1.5-.6.7-.6 1.7-.5 1.1-.6.2-.6-.2-.5-.5-.6.2-.6 1.6-.5 1.2-.6.5-.6 1.4-.5.7-.6.3-.6-.5-.5.1-.6.5-.6 1.4-.5-1.6-.6-1.1-.6-1.1-.5 1-.6.4-.6-.7-.5-.2-.6-.9-.6.8-.5 1.4-.6 2.5-.6 1.6-.5 4.1-.6 1.2-.6 2.7-.5 4.6-.6 6.8-.6 6.4-.6 5.6-.5 2.6-.6 5.2-.6 2.9-.5 3.6-.6.8-.6-.7-.5.2-.6.6-.6 1.9-.5.8-.6.9-.6-1.3-.5-3.1-.6-4.8-.6-2.3-.5-1.7-.6-3.5-.6-3.7-.5-4.4-.6-4.4-.6 1.2-.5-.9-.6-.8-.6-.4-.5.3-.6.8-.6 1.4-.5-1.7-.6-2.2-.6-.5-.5-1.2-.6-.2-.6 1-.6 2.2-.5 1.9-.6 1.4-.6 4.4-.5-.2-.6-.8-.6.3-.5-5.7-.6-4.3-.6-2.2-.5-3.6-.6-4.1-.6-2.2-.5-2-.6.1-.6.9-.5-1.1-.6-3.6-.6-3.1-.5-2.5-.6-4.6-.6-6.2-.5-7.5-.6-11.2-.6-7.5-.5-6.4-.6-6.9-.6-3.9-.5-1.1-.6-2.6-.6-3.5-.5-1.4-.6-2.8-.6-2-.5-4-.6-5.6-.6-4.8-.6-.2-.5-2.3-.6-1.9-.6-.2-.5-.3-.6-.9-.6-.4-.5.4-.6 1.2-.6-.1-.5-.1-.6-2.2-.6-.7-.5 1-.6.1-.6.2-.5-.6-.6.8-.6 2.2-.5.4-.6-.8-.6.2-.5.8-.6.2-.6 1.3-.5 2.6-.6 2.7-.6 3.2-.5 1.8-.6 4.1-.6 3.4-.5 3.1-.6 2-.6 1.1-.6 1.1-.5 2.1-.6.4-.6 1.3h-.5l-.6 2.5-.6 1-.5 1.2-.6 1.6-.6 1.4-.5 1.5-.6 1.3-.6 2-.5.9-.6 1.5-.6.1-.5.1-.6 1.3-.6 2.4-.5 2.2-.6 3.2-.6.3-.5 2-.6.7-.6 2.2-.5.5-.6 1.1-.6 1.1-.5.3-.6.2-.6.6-.5.4-.6.2-.6-.1-.6.3h-.5l-.6.3-.6-.3-.5-.4-.6.5-.6-.6-.5 1.4-.6 1.9-.6 2.2-.5 1.3-.6 1.5-.6 2.3-.5 1.9-.6 2.2-.6 1.5-.5 1.1-.6.9-.6 1-.5 1.1-.6 1-.6 1.2-.5 1.8-.6 1.1-.6 1.4-.5.9-.6 2.1-.6 2.5-.5 2.7-.6 4-.6 1.8-.5 1.8-.6.7-.6 1.4-.6 2.4-.5 2.7-.6 3.2-.6 2.5-.5 2.7-.6 2.6-.6 3.2-.5 3.2-.6 1.8-.6 4.2-.5 3.6-.6 3.9-.6 3.4-.5 1.9-.6.1-.6-1.7-.5.4-.6-.8-.6-.4-.5-.2-.6-1.4-.6-2-.5-2.7-.6-2.3-.6-1.8-.5-2.5-.6-2.8-.6-3.3-.5-1.6-.6-3.9-.6-2.2-.5-2.1-.6-2.4-.6-3.3-.6-2.5-.5-1.3-.6-1-.6.9-.5 1.1-.6 1.5-.6.6-.5 2.2-.6 3.4-.6 3.6-.5 3.7-.6 7.3-.6 4.9-.5 2.9-.6 4.4-.6 6.4-.5 2-.6 1.8-.6-.6-.5 2.6-.6 1.9-.6 1.9-.5 2.1-.6 2.7-.6 2.1-.5 1.9-.6 2.2-.6 1.9-.5 1.3-.6 1.7-.6.5-.5-2.5-.6-.3-.6 1.7-.6-.2-.5-1.7-.6 1-.6 1.3-.5 3.9-.6 2.4-.6 2.4-.5 2.7-.6 2.8-.6 1.2-.5 2-.6 1.3-.6 1.5-.5 1.3-.6 1.1-.6.9-.5 1.1-.6 1.1-.6 1-.5 1.2-.6.9-.6 1.1-.5 1.8-.6 1.8-.6.5-.5.1-.6 1.8h-.6l-.5-.3-.6.6-.6.6-.5.6-.6.8-.6.8-.6.4-.5.4-.6.6-.6.8-.5.3-.6.5-.6.6-.5.1-.6-.3h-.6l-.5.5-.6.8-.6-.5-.5 1.7-.6 3-.6 2.4-.5 2.5-.6 2.5-.6 2.7-.5 2-.6 2.3-.6 2.2-.5 1.6-.6 1.5-.6 1.7-.5 1.9-.6 1.7-.6 2.1-.5 1.6-.6 1.5-.6 1.6-.5 2.1-.6 2.3-.6 1.7H46l-.6.1-.6.1-.6.6-.5.2-.6.3-.6.3-.5.1-.6.6-.6 1-.5.4-.6-.1-.6.4-.5-.1-.6.1h-.6l-.5-.1-.6-.2h-.6l-.5-.6-.6-.2H34l-.5.3-.6-.3-.6-.2-.5.3-.6.1-.6.1-.5.4-.6-.2-.6.5-.5.3-.6-.3h-.6l-.5.6-.6.4-.6.1-.6-.4-.5 23.9H14.2z" fill="#ff6a0f" stroke="#ff6a0f" vector-effect="non-scaling-stroke"/>
<path class="mpld3-path" d="M14.2 478.1H24.4l.5-33.5.6.3h.6l.6-.1.5-.2.6.1.6-.3.5-.2.6-.4.6-.2.5-.2.6-.1.6-.1.5-.1.6.1.6.1.5.1.6.1.6.3.5.3.6.1h1.1l.6-.3.6-.2.5-.1.6.1.6-.1.5-.3.6-.4.6-.6.5-.4.6-.3.6-.4.5-.4.6-.5.6-.3.6-.3.5-2 .6-2.2.6-2.1.5-2 .6-1.7.6-1.7.5-1.9.6-2 .6-2 .5-1.8.6-1.8.6-1.8.5-1.8.6-1.9.6-2.2.5-2.1.6-2.4.6-2.3.5-2.7.6-3.1.6-1.4.5-1.2.6-.8.6-1 .5-1 .6-.3.6-.3.5-.5.6-.4.6-.4.5-.7.6-.5.6-.4.5-.7.6-.6.6-.9.6-.8.5-.6.6-.3.6.3.5.3.6.1.6-.3.5.1.6-.4.6-1 .5-1 .6-1.1.6-1.3.5-1.3.6-1.2.6-1.7.5-2 .6-1.9.6-1.7.5-1.5.6-1.5.6-2.2.5-2.7.6-2.7.6-3 .5-3.2.6-3.3.6-3.9.5-3.8.6-2.7.6-3.2.5-2.3.6-2.9.6-2.3.6-1.4.5-.9.6-1.2.6-1.6.5-2.3.6-2.4.6-2.2.5-2.1.6-1.7.6-1.9.5-1.7.6-1.8.6-1.4.5-1 .6-.7.6-1.5.5-1.4.6-2.1.6-1.5.5-2 .6-3.3.6-3.7.5-3 .6-2.5.6-1.9.5-1.6.6-1.4.6-1.7.5-1.5.6-.8h.6l.5-.5.6.3.6 1.1.6.7.5 1.9.6 1.9.6 1.8.5 1.4.6 2.1.6 2.5.5 2.3.6 2.4.6 2 .5 2.2.6 1.9.6.6.5.9.6.3.6.3.5-.3.6 1.3.6.6.5-1.3.6-1.8.6-2.8.5-2.8.6-2.3.6-1.7.5-2.6.6-2.8.6-2.2.5-2.7.6-2.3.6-2.5.5-2.3.6-1 .6-.9.6-.4.5-.6.6-1 .6-1.8.5-2 .6-1.3.6-.5.5-.7.6-.6.6-.9.5-1 .6-1.2.6-1.4.5-1.5.6-1.2.6-1.1.5-1.2.6-1.4.6-1.9.5-2 .6-1.9.6-2.2.5-2.1.6-2.5.6-1.8.5-1.7.6-.7.6-1.2.5-.5.6-1 .6-.9.5-.7h1.2l.6-.3.5-.8.6-.8.6-.8.5-1.3.6-1.3.6-1.6.5-1.7.6-1.6.6-.9.5-1.2.6-1.3.6-2.4.5-2.5.6-2.1.6-1.7.5-1.1.6-1 .6-1.5.5-1.9.6-1.6.6-1.6.5-1.7.6-2 .6-1.4.5-1.1.6-1.1.6-1.1.5-.5.6-1.1.6-1 .5-1.1.6-.8.6-.6.6-1.3.5-1.3.6-2.2.6-2.2.5-2.9.6-2.5.6-2.7.5-2.8.6-1.9.6-1 .5-.8.6-.8.6-1.3.5-1 .6-1.6.6-1.2.5-.4.6-.9.6-.6.5-.6.6-.2.6-.4.5-.7.6-.6.6-.2h.5l.6.1.6 1 .5.6.6.7.6.9.5 1.1.6 1.7.6 3.4.6 3.9.5 2.7.6 2.1.6 1.7.5 1.4.6 2.5.6 2.2.5 2.1.6 3 .6 4.5.5 3.4.6 5.2.6 6.7.5 6.4.6 5.2.6 3.5.5 3.2.6 3.5.6 3.3h.5l.6-.6.6 1.2.5 1.8.6 2.7.6 3.4.5 2.2.6 2.4.6 4 .5 4 .6 2.1.6 4.1.5.9.6-.6.6-2.2.5-1.1.6-.3.6-1.6.6-.5.5-.9.6 1.9.6 1.6.5 1 .6-.4.6-.4.5.1.6 1.5.6.6.5.2.6.5.6 2 .5 2.3.6 1.6.6 1.8.5 2.9.6 2.5.6 2.1.5 4 .6 1.3.6 1 .5-.4.6-.2.6-.2.5.3.6.6.6-1.2.5-2.3.6-2.1.6-2.9.5-2.5.6-3.8.6-4.5.6-2.9.5-2.5.6-1.7.6-2.5.5-2.6.6-1.8.6-.8.5-.5.6.3.6.6.5 1 .6.7.6-.3.5.5.6.9.6 1.3.5.9.6.2.6.3.5.3.6.6h.6l.5-.7.6.5.6.6.5-1 .6-.8.6-.2.5.2.6-.1.6-1.2.5-1.2.6-.7.6-.7.6-1.3.5-1.9.6-2 .6-2.5.5-2.9.6-1.9.6-2.1.5-2.1.6-1.8.6-2 .5-1.5.6-1.8.6-1.7.5-2.2.6-2.8.6-3.2.5-2.6.6-2.3.6-2.3.5-2.3.6-1.9.6-1.5.5-1.4.6-1 .6-.6.5-1.8.6-2.2.6-1.7.5-1.9.6-2.6.6-2.3.5-1.6.6-1.4.6-1.2.6-2.1.5-1.6.6-1.1.6-1.1.5-.8.6-.7.6.3.5.1.6-.1.6-.6.5-.1.6.4.6.9.5.6.6 1.3.6 1.8.5 1.5.6 1.6.6 1.3.5 1.9.6 3.9.6 3.2.5 2.6.6 2.4.6 1.4.5.4.6-.6.6-.2h.5l.6.6.6-.3.5-.6.6-.7.6-.9.6-1.4.5-1.3.6-.6.6-1.1.5-1.3.6-1.7.6-3.4.5-2.9.6-2.9.6-2.8.5-2.1.6-1.9.6-2.2.5-2.1.6-2 .6-2.2.5-1.8.6-1.4.6-1 .5-.6.6-1.1.6-1.2.5-1.7.6-1.1.6-.6.5-.3.6.4.6.9.5 1.3.6 1.7h0v-23.4l-.6-1-.5.7-.6.1h-.6l-.5.7-.6 1-.6 1.7-.5 1-.6 1.4-.6 1.3-.5 1-.6 1.3-.6 1.2-.5 2.1-.6 2.2-.6 1.7-.5 3.1-.6 1.7-.6.9-.5 1.6-.6 2.3-.6 2-.5 2.3h-.6l-.6 1.9-.5 1-.6.9-.6 1.6-.5.8-.6.6-.6 1.2-.6.4-.5.5-.6-.9-.6-1.2-.5-.7-.6-.3-.6.9-.5.3-.6-1.1-.6-2.3-.5-3.2-.6-3.2-.6-.9-.5-2.3-.6-2-.6-1.7-.5-1.6-.6-2.4-.6-.7-.5-1.1-.6-1-.6-.6-.5 1.5-.6 1.2-.6.9-.5.4-.6.5-.6 1.9-.5 1.3-.6 1.3-.6 2-.5 2.8-.6 2.1-.6 1.9-.6 2.3-.5 2.1-.6 2.5-.6 3.4-.5 1.4-.6 1.7-.6 2.3-.5.6-.6-.1-.6.7-.5 1-.6 1.1-.6 1.4-.5 2-.6 2.1-.6 2.3-.5 2-.6 2.5-.6 1.5-.5 1.7-.6 1.5-.6 1-.5 1.5-.6 2-.6 2.6-.5 2.6-.6 2.2-.6 3.9-.5 3.3-.6 2.6-.6 2.1-.5 2.2-.6 1-.6.6-.6.3-.5 1.1-.6 1.9-.6.1-.5.2-.6.7-.6.3-.5.1-.6-1.9-.6-1.6-.5-.3-.6-.2-.6-.4-.5-.7-.6-1.1-.6-2.1-.5-1-.6-1-.6-.8-.5-1.2-.6-.5-.6-.8-.5-1.6-.6-.5-.6-.7-.5-.2-.6-.4-.6 2.3-.5 1.6-.6 2.9-.6 1.1-.5 1.1-.6.4-.6 1.8-.6.4-.5 2.4-.6-.4-.6 1.3-.5.6-.6.2-.6-.6-.5-1.2-.6-.8-.6-1.1-.5-1.6-.6-2.3-.6-3.5-.5-3.7-.6-.2-.6-2.5-.5-2.9-.6-.7-.6-.1-.5-.4-.6 1.5-.6-1.6-.5.8-.6-.6-.6-.9-.5-1-.6-.2-.6-1-.5-.4-.6-1.6-.6-.6-.5 1.7-.6 3-.6 1.2-.6-.9-.5.3-.6 2.5-.6-5-.5-2.7-.6-5.8-.6-5.9-.5-1.9-.6-2.6-.6-3.2-.5-2.5-.6-1.4-.6-2.1-.5-.7-.6-1.7-.6.1-.5-1.7-.6-3.2-.6-3.8-.5-4-.6-3.7-.6-4.8-.5-6.3-.6-1-.6-2.7-.5-1-.6-.5-.6-2.1-.5-2.4-.6-1.9-.6-.6-.5-1.4-.6-1.3-.6-2.6-.5-1.7-.6-2.4-.6-.1-.6-2.1-.5-.2-.6.2-.6-1.1-.5-1.1-.6-.2-.6.5-.5-.2-.6-.4-.6 1.4-.5 1.2-.6 2-.6 1.4-.5.5-.6 1-.6 1.5-.5 2.1-.6 1.7-.6.7-.5 1.7-.6 2.1-.6 1.6-.5 1-.6 2.7-.6 3.3-.5 3.1-.6 2.6-.6 2.4-.5 3.7-.6.6-.6.1-.5-1.3-.6.5-.6.2-.6.6-.5.4-.6 1-.6.7-.5 1.4h-.6l-.6 1.3-.5 1.3-.6 1.7-.6 2.3-.5 1.9-.6 1.7-.6 1.7-.5 2.5-.6.8-.6 2.1-.5 2.5-.6 3.4-.6 1.6-.5 2.4-.6 1.1-.6 1.7-.5.4-.6 1.4-.6 1.5-.5 2.7-.6 2.2-.6 1.4-.5 1.9-.6 1.3-.6 1-.5.9-.6.2h-.6l-.6.4-.5 1.2-.6 1.6-.6 2-.5 2.3-.6 1.7-.6 2.6-.5 2.3-.6 2.7-.6 2.7-.5 2.6-.6 2.5-.6 1.5-.5 1.9-.6 1.5-.6 1.2-.5 1.2-.6 1.2-.6 1.6-.5 2.1-.6 1.6-.6 1.1-.5.6-.6.4h-1.1l-.6-2.1-.6.3-.5 1.3-.6-1.6-.6-.2-.5-.6-.6.1-.6.5-.6.4-.5 2.1-.6 1.6-.6 2.2-.5 2.1-.6 2-.6 2-.5 1-.6 1.6-.6 1.3-.5 1.7-.6 1.5-.6 2.1-.5.5-.6-2.7-.6.7-.5-.3-.6.3-.6-.3-.5-1.1-.6-.4-.6-2.1-.5-1.5-.6-2.2-.6-2.9-.5-2.3-.6-1.6-.6-.2-.5-1-.6-.4-.6-1.1-.5-.6-.6.2-.6.6-.6 2.9-.5 1.7-.6 1.9-.6 1.2-.5 1.3-.6 1.4-.6 1.9-.5 1.5-.6 1.2-.6 2.1-.5 2.9-.6.2-.6.2-.5.3-.6-.6-.6-2.6-.5-.8-.6-.3-.6 1.6-.5.4-.6 1-.6 1.6-.5 1.6-.6.9-.6 1.9-.5 2.7-.6 2.2-.6 2.7-.5 2.5-.6.8-.6 1.8-.5 4.5-.6 4.6-.6 3.8-.6 4.9-.5 7-.6 6.2-.6 5.5-.5 4.1-.6 4.6-.6 4.3-.5 3.4-.6 3-.6 4.4-.5 3.1-.6 2.5-.6 1.9-.5 1.8-.6 2.5-.6 3.3-.5 2.6-.6 1.7-.6 1.3-.5 1.4-.6 1.5-.6 1.1-.5.1-.6-.5-.6-.1-.5.1-.6-1.4-.6-.4-.5-.7-.6-.7h-.6l-.5.9-.6.9-.6.9-.6.8-.5.8-.6.4-.6.3-.5.7-.6.7-.6.2-.5.6-.6 1-.6 1.6-.5 1.5-.6 1.2-.6 2.4-.5.9-.6.5-.6 3.3-.5 2.6-.6 2.3-.6 1.7-.5 2.1-.6 2-.6 1.2-.5 2-.6 2.2-.6 1.8-.5 1.7-.6 2.2-.6 1.8-.5 2-.6 1.8-.6 1.9-.5 2-.6 2-.6 2.6-.5 3.5-.6.5-.6.6-.6.4-.5.8-.6.4-.6.4-.5 1-.6.4-.6-.2h-.5l-.6.3-.6-.4-.5.4-.6.3-.6.4-.5.1h-.6l-.6-.3h-.5l-.6-.3-.6-.2-.5-.2-.6.1h-.6l-.5-.1-.6.2-.6.1-.5.1-.6.8-.6.1-.5.1-.6.4h-.6l-.5-.2-.6-.2-.6-.3-.6-.3-.5 43.5H14.2z" fill="#c6cdaf" fill-opacity=".5" stroke="#c6cdaf" stroke-opacity=".5" vector-effect="non-scaling-stroke"/>
<path class="mpld3-path" d="M14.2 478.1H24.4l.5-33.2-.5-3.8-.6-.7-.6 3.8-.5 3.9-.6 2.4-.6.2-.5-2.1-.6-1.6-.6-2.6-.5 4-.6-1.5-.6-.6-.5-5.2-.6-1.3-.6-.1-.5 4.4-.6 3.2-.6-7.3-.5-2.2zM25.1 444.7l.4.2h.6l.6-.1.5-.2.6.1.6-.3.5-.2.6-.4.6-.2.4-.2-.4-1.1-.6-3.6-.6-1.6-.5-2.2-.6 5-.6 1.3-.5 3.5-.6-3.9-.6 3.4zM30.8 443.3h.4l.1-.1-.1-.6zM36.9 444.2h.5l.6-.3.6-.2.5-.1.6.1.6-.1.5-.3.6-.4.6-.6.5-.4.6-.3.6-.4.1-.1-.1-1.3-.6-1.1-.6-3-.5-3.5-.6.8-.6 1-.5.6-.6 1.7-.6 2.2-.5-1.1-.6.4-.6 2.6zM46 439.6l.5-1.9.6-2.2.6-2.1.5-2 .6-1.7.6-1.7.5-1.9.6-2 .6-2 .5-1.8.6-1.8.6-1.8.5-1.8.6-1.9.6-2.2.5-2.1.6-2.4.6-2.3.5-2.7.6-3.1.6-1.4.5-1.2.6-.8.6-1 .5-1 .4-.2-.4-4.8-.5-4.2-.6 4.5-.6-9.4-.5-.6-.6 2.8-.6 8.7-.5 4.8-.6 3.8-.6-1-.5-2.2-.6 3.1-.6-2.9-.5 2.2-.6 1.1-.6-1.1-.5-1.1-.6 2.8-.6.7-.5 2.7-.6 5-.6-2.7-.5-.5-.6-1.6-.6 2.9zM61.6 391.9l.2-.2.6-.4.6-.4.5-.7.6-.5.6-.4.5-.7.6-.6.6-.9.6-.8.5-.6.6-.3.4.2-.4-1.4-.6-.9-.5-2.8-.6-.9-.6 3.3-.6 1.4-.5 2.9-.6-.2-.6-1.1-.5 2-.6.6-.6 2.2zM68.7 385.7l.5.3.6.1.6-.3.5.1.6-.4.6-1 .5-1 .6-1.1.6-1.3.5-1.3.6-1.2.6-1.7.5-2 .6-1.9.6-1.7.5-1.5.6-1.5.6-2.2.5-2.7.6-2.7.6-3 .5-3.2.6-3.3.6-3.9.5-3.8.6-2.7.6-3.2.5-2.3.6-2.9.6-2.3.4-1.1-.4-15-.6-7.5-.6 15.3-.5-11.6-.6 11.6-.6-17.7-.5 3.8-.6 5.8-.6 4.6-.5 7-.6 5.9-.6-1.5-.5 10.2-.6 9.5-.6.4-.5-.5-.6-2.9H76l-.5 8.2-.6 6.5-.6.5-.5 1.7-.6 5.1-.6 5.7-.5 1.5-.6 4.4-.6 5.7-.5-4.8-.6 1.1-.6 1.6zM87.2 326.9l.2-.3.6-1.6.5-2.3.6-2.4.6-2.2.5-2.1.6-1.7.6-1.9.5-1.7.6-1.8.6-1.4.5-1 .6-.7.6-1.5.5-1.4.6-2.1.6-1.5.5-2 .6-3.3.6-3.7.5-3 .6-2.5.6-1.9.5-1.6.6-1.4.6-1.7.5-1.5.6-.8-.6-9.7-.5-1.4-.6 12.1-.6-7.8-.5-3.1-.6-2.5-.6.8-.5-2.9-.6 5.6-.6 7.8-.5 2-.6 2.2-.6 4-.5 6.8-.6 2-.6-5.5-.5.1-.6-2.9-.6 6.4-.5 4.2-.6.7-.6 4.3-.5 5.7-.6-3.8-.6 3.1-.5 10.6-.6 8.2zM103.8 275.5v-.1l.1.1-.1-1.8zM112 300.1l.4.4.5.9.6.3.6.3.5-.3.6 1.3.6.6.5-1.3.6-1.8.6-2.8.5-2.8.6-2.3.6-1.7.5-2.6.6-2.8.6-2.2.5-2.7.6-2.3.6-2.5.5-2.3.6-1 .6-.9.6-.4.5-.6.6-1 .6-1.8.5-2 .6-1.3.6-.5.5-.7.6-.6.6-.9.5-1 .6-1.2.6-1.4.5-1.5.6-1.2.6-1.1.5-1.2.6-1.4.6-1.9.5-2 .6-1.9.6-2.2.5-2.1.6-2.5.6-1.8.5-1.7.3-.4-.3-7.9-.5-4.3-.6-5.7-.6 4.4-.5 3.2-.6 2.3-.6-2.3-.5 5.5-.6 1.8-.6 2.8-.5 1.4-.6-1.5-.6-1.9-.5-.1-.6 9-.6 6.9-.5 3.4-.6 1.4-.6 3.5-.5.8-.6 2-.6.4-.5 5.9-.6-1.2-.6 3.2-.5-2.1-.6-1.6-.6 3.2-.6-7.4-.5-.3-.6-1.8-.6.3-.5 4.5-.6-2.2-.6 5.5-.5 2.6-.6.7-.6-3.7-.5 4.7-.6-1.9-.6 15.9-.5 16.7-.6.1-.6-16.8-.5-2.8-.6-8.5-.6 8.4-.5 7zM141.3 232.3h0l.3-.5-.3-.3zM142 231.3l.4-.6h.3l-.3-2.8zM143.8 230.6l.4-.2.5-.8.6-.8.6-.8.5-1.3.6-1.3.6-1.6.5-1.7.6-1.6.6-.9.5-1.2.6-1.3.6-2.4.5-2.5.6-2.1.6-1.7.5-1-.5-9.5-.6 2.7-.6-16.1-.5 9.9-.6 7.9-.6-3.4-.5.3-.6-8.7-.6-.3-.5 6.2-.6 2.7-.6 4.8-.5 12.1-.6 3.4-.6 1.2-.5 8.2zM154.2 205.2l.2-.4.5-1.9.6-1.6.6-1.6.5-1.7.6-2 .6-1.4.5-1.1.6-1.1.6-1.1.5-.5.6-1.1.6-1 .5-1.1.6-.8.6-.6.6-1.3.5-1.3.6-2.2.6-2.2.5-2.9.6-2.5.6-2.7.5-2.8.6-1.9.6-1 .5-.8.6-.8.6-1.3.5-1 .6-1.6.6-1.2.1-.1-.1-5-.6-5.7-.6-.1-.5.9-.6 13.9-.6-3.8-.5-1.8-.6-10.6-.6-12.9-.5 7.8-.6 3-.6 1.2-.5 18.9-.6 1.5-.6 6.5-.5.7-.6-.6-.6 6.2-.6 2-.5-1.6-.6-1.3-.6 1.2-.5-10.8-.6 6.8-.6 2.9-.5-3.5-.6 3.4-.6 7-.5 4.3-.6 7.1-.6-3.2-.5 10.7zM175.8 155.1l.1-.2.6-.6.6-.2h.5l.6.1.6 1 .2.3-.2-2.2-.6-9.6-.6.4-.5-2.9-.6 11-.6.1zM193.3 230.1h.2l.6-.6.6 1.2v.2-2.6l-.6-12.3-.6-.2zM201.1 257l.4-1.5.5-1.1.6-.3.6-1.6.6-.5.5-.9.6 1.9.6 1.6.5 1 .6-.4.6-.4.3.1-.3-10.9-.6-1.5-.6 5.9-.5.6-.6 3.4-.6-20.3-.5 9-.6-30.2-.6 23.9-.6 4.8-.5-1.2zM214.9 277.6l.2.6.6 1 .5-.4.6-.2.6-.2.5.3.6.6.6-1.2.5-2.3.6-2.1.6-2.9.5-2.5.6-3.8.6-4.5.6-2.9.5-2.5.2-.6-.2-4.1-.5-9.5-.6 4.6-.6 4.3-.6 2.3-.5-18.6-.6.9-.6 2.7-.5 2.7-.6 16.6-.6-6.8-.5-4.5-.6-.9-.6.8-.5 7.8-.6 15.7zM224.5 251.7l.3-1.3.5-2.6.4-1.3-.4-20-.5 14zM227 244.8v-.1l.1.1-.1-1zM234 251.6l.4.4h.6l.5-.7.6.5.6.6.5-1 .6-.8.6-.2.4.2-.4-9.7-.6-6.8-.6-1.1-.5 7.1-.6 9.2-.6-.3-.5 1.3-.6 1zM239.7 250.1l.4-.8.5-1.2.6-.7.6-.7.6-1.3.5-1.9.6-2 .6-2.5.5-2.9.6-1.9.6-2.1.5-2.1.6-1.8.6-2 .5-1.5.6-1.8.6-1.7.5-2.2.6-2.8.6-3.2.5-2.6.6-2.3.6-2.3.5-2.3.6-1.9.6-1.5.5-1.4.6-1 .6-.6.5-1.8.6-2.2.6-1.7.5-1.9.6-2.6.6-2.3.5-1.6.6-1.4.6-1.2.6-2.1.5-1.6.6-1.1.6-1.1.5-.8-.5-4.9-.6-1-.6-8.5-.5-3.5-.6 17.9-.6-3.1-.6-4.4-.5-3.4-.6-3.5-.6 14-.5.1-.6-6.4-.6 10.6-.5 7.4-.6-.9-.6.5-.5 5.3-.6.5-.6-.3-.5-.9-.6 3.3-.6-4-.5 3.6-.6 5.4-.6-.6-.5 2-.6-.1-.6 9.7-.5 2.1-.6 2.3-.6-5.3-.5 2.8-.6 2.7-.6-15.8-.5 6.4-.6 10.3-.6 5.7-.5 8.6-.6 7.6-.6-1.3-.6 5.1-.5.7zM266.7 172.7h.1v-1zM275.4 197.5l.4.3.6-.6.6-.2h.5l.6.6.6-.3.5-.6.6-.7.6-.9.6-1.4.5-1.3.6-.6.6-1.1.5-1.3.6-1.7.6-3.4.5-2.9.6-2.9.6-2.8.5-2.1.6-1.9.6-2.2.5-2.1.6-2 .6-2.2.5-1.8.6-1.4.6-1 .5-.6.6-1.1.6-1.2.5-1.7.6-1.1V152.5l-.6-7.8-.5 1.8-.6 2.6-.6 6.1-.5-3.9-.6-4-.6-5.2-.5-3.2-.6 2.9-.6 2.8-.5-4.7-.6 8.4-.6 10.5-.5 2.7-.6 1.1-.6 1.4-.5 3.5-.6 8.3-.6-3.1-.5 1.9-.6 5.6-.6-10.3-.5.8-.6-2-.6 2.7-.6 2.1-.5 4.5-.6 4.7-.6-.2-.5 4.4-.6-2.4-.6.8z" fill="#0072ff" fill-opacity=".6" stroke="#0072ff" stroke-opacity=".6" vector-effect="non-scaling-stroke"/>
<path class="mpld3-path" d="M24.9 444.9v-.3l.2.1-.2.2zM30.5 443.4h.1l.2-.1-.2.3zM31.3 443.2h.5l.5-.1.6.1.6.1.5.1.6.1.6.3.5.3.6.1h.6v.6l-.6 2.5-.6-.6-.5-.7-.6 1.5-.6 1.6-.5 3.5-.6-.3-.6-4.5-.5-2.7zM43.8 441.1l.4-.3.6-.5.6-.3.6-.3v-.1 3.2l-.6-.1-.6-.9-.6 2.8zM60.5 392.6l.2-.1.6-.3.3-.3-.3 1.9-.6 2.2zM68.5 385.6l.2.1h0v.3zM86.1 329l.2-.3.5-.9.4-.9-.4 9.5-.5-3.2zM102.7 275.9h.6l.5-.4-.5 15.7-.6-14.3zM103.9 275.5l.5.2.6 1.1.6.7.5 1.9.6 1.9.6 1.8.5 1.4.6 2.1.6 2.5.5 2.3.6 2.4.6 2 .5 2.2.6 1.9.2.2-.2 6.7-.6 3.1-.5-5.1-.6 6.2-.6-2.6-.5 8.7-.6.3-.6-13.5-.5 11.9-.6 5.4-.6 5.8-.5-21.9-.6 4.7-.6-19.1zM139.3 235.3l.3-.3.6-1.2.5-.5.6-1-.6 11.1-.5-8.9-.6 8.1zM141.6 231.8l.3-.4.1-.1-.1.7zM142.7 230.7H143.6l.2-.1-.2 1.4-.6 1.7zM153.2 207.4v-.1l.6-1 .4-1.1-.4 4.3-.6-.6zM172.1 158.6l.4-.3.6-.9.6-.6.5-.6.6-.2.6-.4.4-.5-.4 8.9-.6 5.6-.6-8.5-.5 5.2-.6-4.3-.6 9.6zM179 155.5l.3.3.6.7.6.9.5 1.1.6 1.7.6 3.4.6 3.9.5 2.7.6 2.1.6 1.7.5 1.4.6 2.5.6 2.2.5 2.1.6 3 .6 4.5.5 3.4.6 5.2.6 6.7.5 6.4.6 5.2.6 3.5.5 3.2.6 3.5.6 3.3h.3l-.3 18.4-.6 4.3-.6-10.9h-.5l-.6 19.6-.6 19.6-.5-2.5-.6-30.1-.6-40.4-.5 34.2-.6-30.3-.6-6-.5 7.3-.6-1.9-.6-17.7-.5 3.4-.6 17.1-.6-8-.5 20.1-.6-10.4-.6-33.4-.6 1.7-.5-7.3-.6-5.7-.6-12.6zM194.7 230.9l.5 1.6.6 2.7.6 3.4.5 2.2.6 2.4.6 4 .5 4 .6 2.1.6 4.1.5.9.6-.6.2-.7-.2 9.3h-.6l-.5 23-.6-4.3-.6 6.2-.5-4.9-.6-23.5-.6-7.5-.5 5.9-.6-9.3-.6-1.7zM207.5 254.9h.2l.6 1.5.6.6.5.2.6.5.6 2 .5 2.3.6 1.6.6 1.8.5 2.9.6 2.5.6 2.1.5 4 .4.7-.4 12.2-.5-11.3-.6 10.8-.6 7-.5 4.7-.6-2.7-.6 36.8-.5-9.7-.6-24.2-.6-9.9-.5-16.3-.6 8.8-.6-20.6zM223.8 254l.4-1.1.3-1.2-.3 11zM225.7 246.5l.2-.5.6-.8.5-.4-.5 6.4-.6 2.1zM227.1 244.8l.5.2.6.6.5 1 .6.7.6-.3.5.5.6.9.6 1.3.5.9.6.2.6.3.5.3.2.2-.2.1-.5 3.6-.6-.8-.6-1.6-.5 5.7-.6-4.3-.6-5-.5.6-.6 13.6-.6.8-.5-7.6-.6-7.5zM238.8 250.6h.1l.6-.1.2-.4-.2 4.8-.6-1.5zM263.9 173.7h0l.6-.7.6.3.5.1.6-.1.5-.6-.5 9.6-.6 9-.5 5-.6-19.5-.6-2.8zM266.8 172.6h.5l.6.4.6.9.5.6.6 1.3.6 1.8.5 1.5.6 1.6.6 1.3.5 1.9.6 3.9.6 3.2.5 2.6.6 2.4.6 1.4.1.1-.1 4.2-.6 14.4-.6 4.6-.5 2.6-.6 10.7-.6-23.9-.5-11.9-.6-.8-.6-5-.5 3.8-.6 2.2-.6-12.8-.5.6-.6-.4-.6-2.9zM294 153.2l.6-.5.5-.3.6.4.6.9.5 1.3.6 1.7h0v39.5l-.6-9.3-.5-3.3-.6-9.2-.6-4.1-.5-8.9z" fill="#ff0018" fill-opacity=".8" stroke="#ff0018" stroke-opacity=".8" vector-effect="non-scaling-stroke"/>
<path class="mpld3-path" d="M14.2 478.1H126.6l.5-117.4.6-.9.6-.9.5-1 .6-1 .6-.9.5-.9.6-1 .6-1.1.5-1.1.6-1 .6-1.1.5-1 .6-1.1.6-1.1.5-1.1.6-1.2.6-1.1.5-1 .6-1.2.6-1.1.5-1.1.6-.9.6-1.1.5-1 .6-1 .6-1 .5-1.1.6-1 .6-1.1.6-1 .5-1.1.6-1.2.6-1.1.5-1.3.6-1.2.6-1.3.5-1.3.6-1.3.6-1.2.5-1.3.6-1.2.6-1.2.5-1.3.6-1.1.6-1.2.5-1.2.6-1.1.6-1.2.5-1.2.6-1.1.6-1.3.5-1.2.6-1.4.6-1.3.5-1.3.6-1.4.6-1.3.5-1.2.6-1.1.6-1.1.5-1.1.6-1.2.6-1.1.6-1.2.5-1.1.6-1.2.6-1.1.5-1.3.6-1.2.6-1.3.5-1.3.6-1.3.6-1.2.5-1.2.6-1.1.6-1.2.5-1.2.6-1.2.6-1.1.5-1.1.6-1.1.6-1.1.5-1.2.6-1.1.6-1.1.5-1.2.6-1.2.6-1.2.5-1.2.6-1.2.6-1.2.5-1.1.6-1 .6-1.1.5-1 .6-1 .6-.8.6-.8.5-.9.6-.8.6-1 .5-.9.6-.8.6-.8.5-.8.6-.8.6-.6.5-.7.6-.6.6-.3.5-.3.6-.5.6-.5.5-.6.6-.4.6-.4.5-.6.6-.5.6-.5.5-.3.6-.3.6-.2.5-.3.6-.3.6-.1.5-.1.6-.2.6-.2.5-.3.6-.3.6-.4.5-.3.6-.3.6-.5.6-.3.5-.3.6-.2.6-.2.5-.2.6-.2.6-.2.5-.2h1.7l.6.1.6.3.5.3.6.2.6.2.5.2.6.1h.6l.5.1h.6l.6-.1.5-.1.6-.3.6-.1.5-.2.6-.3.6-.3.5-.5.6-.4.6-.4.5-.3.6-.3.6-.4.6-.3.5-.3.6-.2.6-.4.5-.4.6-.2.6-.1.5-.2.6-.1.6-.2.5-.2.6-.1.6-.2.5-.1.6-.1h.6l.5-.1.6-.1h.6l.5-.1h.6l.6-.1h.5l.6-.1.6-.1.5-.2.6-.1.6-.1.5-.1.6-.1.6-.1.5-.1.6-.1.6-.1.6-.2.5-.2.6-.1.6-.3.5-.2.6-.1.6-.1.5-.1.6-.2.6-.1.5-.1.6-.2.6-.1.5-.1.6-.2.6-.1.5-.2.6-.1.6-.2.5-.3.6-.2.6-.3.5-.2.6-.2.6-.3.5-.2.6-.4.6-.2.5-.3.6-.3.6-.2.5-.2.6-.2.6-.1.6-.2.5-.1.6-.2.6-.1.5-.2.6-.1.6.1h.5l.6-.1.6-.2.5-.1.6-.1.6-.1h1.1l.6.1.5.1.6.1.6.1.5.2.6.3.6.2.5.2.6.2.6.1h.5l.6.1.6.1h.5l.6.1.6.1.5.1.6.2.6.1.6.2.5.1.6.1.6.1h.5l.6.2.6.1.5.1h.6l.6-.1h.5l.6-.1.6-.1.5-.1.6-.1.6-.1H291.2l.5.1h.6l.6-.1.5-.1.6-.1.6-.1.5-.1.6-.2.6-.2.5-.1.6-.1" fill="none" stroke="#ff071e" stroke-width="2" vector-effect="non-scaling-stroke"/>
<path class="mpld3-path" d="M14.2 478.1H24.4l.5-43.5.6.3.6.3.6.2.5.2h.6l.6-.4.5-.1.6-.1.6-.8.5-.1.6-.1.6-.2.5.1h.6l.6-.1.5.2.6.2.6.3h.5l.6.3h.6l.5-.1.6-.4.6-.3.5-.4.6.4.6-.3h.5l.6.2.6-.4.5-1 .6-.4.6-.4.5-.8.6-.4.6-.6.6-.5.5-3.5.6-2.6.6-2 .5-2 .6-1.9.6-1.8.5-2 .6-1.8.6-2.2.5-1.7.6-1.8.6-2.2.5-2 .6-1.2.6-2 .5-2.1.6-1.7.6-2.3.5-2.6.6-3.3.6-.5.5-.9.6-2.4.6-1.2.5-1.5.6-1.6.6-1 .5-.6.6-.2.6-.7.5-.7.6-.3.6-.4.5-.8.6-.8.6-.9.6-.9.5-.9h.6l.6.7.5.7.6.4.6 1.4.5-.1.6.1.6.5.5-.1.6-1.1.6-1.5.5-1.4.6-1.3.6-1.7.5-2.6.6-3.3.6-2.5.5-1.8.6-1.9.6-2.5.5-3.1.6-4.4.6-3 .5-3.4.6-4.3.6-4.6.5-4.1.6-5.5.6-6.2.5-7 .6-4.9.6-3.8.6-4.6.5-4.5.6-1.8.6-.8.5-2.5.6-2.7.6-2.2.5-2.7.6-1.9.6-.9.5-1.6.6-1.6.6-1 .5-.4.6-1.6.6.3.5.8.6 2.6.6.6.5-.3.6-.2.6-.2.5-2.9.6-2.1.6-1.2.5-1.5.6-1.9.6-1.4.5-1.3.6-1.2.6-1.9.5-1.7.6-2.9.6-.6.6-.2.5.6.6 1.1.6.4.5 1 .6.2.6 1.6.5 2.3.6 2.9.6 2.2.5 1.5.6 2.1.6.4.5 1.1.6.3.6-.3.5.3.6-.7.6 2.7.5-.5.6-2.1.6-1.5.5-1.7.6-1.3.6-1.6.5-1 .6-2 .6-2 .5-2.1.6-2.2.6-1.6.5-2.1.6-.4.6-.5.6-.1.5.6.6.2.6 1.6.5-1.3.6-.3.6 2.1h1.1l.6-.4.5-.6.6-1.1.6-1.6.5-2.1.6-1.6.6-1.2.5-1.2.6-1.2.6-1.5.5-1.9.6-1.5.6-2.5.5-2.6.6-2.7.6-2.7.5-2.3.6-2.6.6-1.7.5-2.3.6-2 .6-1.6.5-1.2.6-.4h.6l.6-.2.5-.9.6-1 .6-1.3.5-1.9.6-1.4.6-2.2.5-2.7.6-1.5.6-1.4.5-.4.6-1.7.6-1.1.5-2.4.6-1.6.6-3.4.5-2.5.6-2.1.6-.8.5-2.5.6-1.7.6-1.7.5-1.9.6-2.3.6-1.7.5-1.3.6-1.3h.6l.5-1.4.6-.7.6-1 .5-.4.6-.6.6-.2.6-.5.5 1.3.6-.1.6-.6.5-3.7.6-2.4.6-2.6.5-3.1.6-3.3.6-2.7.5-1 .6-1.6.6-2.1.5-1.7.6-.7.6-1.7.5-2.1.6-1.5.6-1 .5-.5.6-1.4.6-2 .5-1.2.6-1.4.6.4.5.2.6-.5.6.2.5 1.1.6 1.1.6-.2.5.2.6 2.1.6.1.6 2.4.5 1.7.6 2.6.6 1.3.5 1.4.6.6.6 1.9.5 2.4.6 2.1.6.5.5 1 .6 2.7.6 1 .5 6.3.6 4.8.6 3.7.5 4 .6 3.8.6 3.2.5 1.7.6-.1.6 1.7.5.7.6 2.1.6 1.4.5 2.5.6 3.2.6 2.6.5 1.9.6 5.9.6 5.8.5 2.7.6 5 .6-2.5.5-.3.6.9.6-1.2.6-3 .5-1.7.6.6.6 1.6.5.4.6 1 .6.2.5 1 .6.9.6.6.5-.8.6 1.6.6-1.5.5.4.6.1.6.7.5 2.9.6 2.5.6.2.5 3.7.6 3.5.6 2.3.5 1.6.6 1.1.6.8.5 1.2.6.6.6-.2.5-.6.6-1.3.6.4.5-2.4.6-.4.6-1.8.6-.4.5-1.1.6-1.1.6-2.9.5-1.6.6-2.3.6.4.5.2.6.7.6.5.5 1.6.6.8.6.5.5 1.2.6.8.6 1 .5 1 .6 2.1.6 1.1.5.7.6.4.6.2.5.3.6 1.6.6 1.9.5-.1.6-.3.6-.7.5-.2.6-.1.6-1.9.5-1.1.6-.3.6-.6.6-1 .5-2.2.6-2.1.6-2.6.5-3.3.6-3.9.6-2.2.5-2.6.6-2.6.6-2 .5-1.5.6-1 .6-1.5.5-1.7.6-1.5.6-2.5.5-2 .6-2.3.6-2.1.5-2 .6-1.4.6-1.1.5-1 .6-.7.6.1.5-.6.6-2.3.6-1.7.5-1.4.6-3.4.6-2.5.5-2.1.6-2.3.6-1.9.6-2.1.5-2.8.6-2 .6-1.3.5-1.3.6-1.9.6-.5.5-.4.6-.9.6-1.2.5-1.5.6.6.6 1 .5 1.1.6.7.6 2.4.5 1.6.6 1.7.6 2 .5 2.3.6.9.6 3.2.5 3.2.6 2.3.6 1.1.5-.3.6-.9.6.3.5.7.6 1.2.6.9.5-.5.6-.4.6-1.2.6-.6.5-.8.6-1.6.6-.9.5-1 .6-1.9h.6l.5-2.3.6-2 .6-2.3.5-1.6.6-.9.6-1.7.5-3.1.6-1.7.6-2.2.5-2.1.6-1.2.6-1.3.5-1 .6-1.3.6-1.4.5-1 .6-1.7.6-1 .5-.7h.6l.6-.1.5-.7.6 1" fill="none" stroke="#fff0da" stroke-dasharray="6" stroke-opacity=".5" stroke-width="2" vector-effect="non-scaling-stroke"/>
<path class="mpld3-path" d="M14.2 478.1H24.4l.5-23.9.6.4.6-.1.6-.4.5-.6h.6l.6.3.5-.3.6-.5.6.2.5-.4.6-.1.6-.1.5-.3.6.2.6.3.5-.3h.6l.6.2.5.6h.6l.6.2.5.1h.6l.6-.1.5.1.6-.4.6.1.5-.4.6-1 .6-.6.5-.1.6-.3.6-.3.5-.2.6-.6.6-.1.6-.1h.5l.6-1.7.6-2.3.5-2.1.6-1.6.6-1.5.5-1.6.6-2.1.6-1.7.5-1.9.6-1.7.6-1.5.5-1.6.6-2.2.6-2.3.5-2 .6-2.7.6-2.5.5-2.5.6-2.4.6-3 .5-1.7.6.5.6-.8.5-.5h.6l.6.3.5-.1.6-.6.6-.5.5-.3.6-.8.6-.6.5-.4.6-.4.6-.8.6-.8.5-.6.6-.6.6-.6.5.3h.6l.6-1.8.5-.1.6-.5.6-1.8.5-1.8.6-1.1.6-.9.5-1.2.6-1 .6-1.1.5-1.1.6-.9.6-1.1.5-1.3.6-1.5.6-1.3.5-2 .6-1.2.6-2.8.5-2.7.6-2.4.6-2.4.5-3.9.6-1.3.6-1 .5 1.7.6.2.6-1.7.6.3.5 2.5.6-.5.6-1.7.5-1.3.6-1.9.6-2.2.5-1.9.6-2.1.6-2.7.5-2.1.6-1.9.6-1.9.5-2.6.6.6.6-1.8.5-2 .6-6.4.6-4.4.5-2.9.6-4.9.6-7.3.5-3.7.6-3.6.6-3.4.5-2.2.6-.6.6-1.5.5-1.1.6-.9.6 1 .5 1.3.6 2.5.6 3.3.6 2.4.5 2.1.6 2.2.6 3.9.5 1.6.6 3.3.6 2.8.5 2.5.6 1.8.6 2.3.5 2.7.6 2 .6 1.4.5.2.6.4.6.8.5-.4.6 1.7.6-.1.5-1.9.6-3.4.6-3.9.5-3.6.6-4.2.6-1.8.5-3.2.6-3.2.6-2.6.5-2.7.6-2.5.6-3.2.5-2.7.6-2.4.6-1.4.6-.7.5-1.8.6-1.8.6-4 .5-2.7.6-2.5.6-2.1.5-.9.6-1.4.6-1.1.5-1.8.6-1.2.6-1 .5-1.1.6-1 .6-.9.5-1.1.6-1.5.6-2.2.5-1.9.6-2.3.6-1.5.5-1.3.6-2.2.6-1.9.5-1.4.6.6.6-.5.5.4.6.3.6-.3h.5l.6-.3.6.1.6-.2.5-.4.6-.6.6-.2.5-.3.6-1.1.6-1.1.5-.5.6-2.2.6-.7.5-2 .6-.3.6-3.2.5-2.2.6-2.4.6-1.3.5-.1.6-.1.6-1.5.5-.9.6-2 .6-1.3.5-1.5.6-1.4.6-1.6.5-1.2.6-1 .6-2.5h.5l.6-1.3.6-.4.5-2.1.6-1.1.6-1.1.6-2 .5-3.1.6-3.4.6-4.1.5-1.8.6-3.2.6-2.7.5-2.6.6-1.3.6-.2.5-.8.6-.2.6.8.5-.4.6-2.2.6-.8.5.6.6-.2.6-.1.5-1 .6.7.6 2.2.5.1.6.1.6-1.2.5-.4.6.4.6.9.5.3.6.2.6 1.9.5 2.3.6.2.6 4.8.6 5.6.5 4 .6 2 .6 2.8.5 1.4.6 3.5.6 2.6.5 1.1.6 3.9.6 6.9.5 6.4.6 7.5.6 11.2.5 7.5.6 6.2.6 4.6.5 2.5.6 3.1.6 3.6.5 1.1.6-.9.6-.1.5 2 .6 2.2.6 4.1.5 3.6.6 2.2.6 4.3.5 5.7.6-.3.6.8.5.2.6-4.4.6-1.4.5-1.9.6-2.2.6-1 .6.2.5 1.2.6.5.6 2.2.5 1.7.6-1.4.6-.8.5-.3.6.4.6.8.5.9.6-1.2.6 4.4.5 4.4.6 3.7.6 3.5.5 1.7.6 2.3.6 4.8.5 3.1.6 1.3.6-.9.5-.8.6-1.9.6-.6.5-.2.6.7.6-.8.5-3.6.6-2.9.6-5.2.5-2.6.6-5.6.6-6.4.6-6.8.5-4.6.6-2.7.6-1.2.5-4.1.6-1.6.6-2.5.5-1.4.6-.8.6.9.5.2.6.7.6-.4.5-1 .6 1.1.6 1.1.5 1.6.6-1.4.6-.5.5-.1.6.5.6-.3.5-.7.6-1.4.6-.5.5-1.2.6-1.6.6-.2.5.5.6.2.6-.2.5-1.1.6-1.7.6-.7.6-1.5.5-1.2.6-2.3.6-2 .5-2.3.6-.9.6-1.4.5-2 .6-1.5.6-1.5.5-2 .6-2.4.6-1.7.5-2.4.6-3.3.6-4.1.5-3.5.6-2.5.6-2.3.5-2.4.6-2.6.6-1.9.5-1.6.6-1.8.6-1.8.5-1.5.6-2 .6-1.8.5-2.8.6-1.3.6-2.1.5-1.2.6-1 .6-.5.6-1.8.5-.3.6-.5.6-1 .5-.3.6.9.6.8.5.3.6 1.2.6.3.5.8.6-.2.6.4.5.4.6 1.9.6.3.5 1.6.6 1.2.6 1.2.5 1.1.6 5.7.6 3.3.5 2.5.6 2.9.6 2.1.5 1.1.6-.4.6-.9.5-1.4.6-.2.6-.8.5-1.2.6-.8.6-.6.6-2.1.5-1.4.6-.1.6-1.3.5-1.5.6-1.5.6-5.7.5-3.9.6-3.9.6-3.2.5-3 .6-2.4.6-2.2.5-1.6.6-2.3.6-1.9.5-1.7.6-1.4.6-.6.5-.7.6-.4.6-.7.5-1.6.6-.9h.6l.5.2.6.8.6 1.5.5 2.4.6 2.2" fill="none" stroke="#fff0da" stroke-dasharray="6" stroke-opacity=".5" stroke-width="2" vector-effect="non-scaling-stroke"/>
<path class="mpld3-path" d="M14.2 478.1H24.4l.5-33.5.6.3h.6l.6-.1.5-.2.6.1.6-.3.5-.2.6-.4.6-.2.5-.2.6-.1.6-.1.5-.1.6.1.6.1.5.1.6.1.6.3.5.3.6.1h1.1l.6-.3.6-.2.5-.1.6.1.6-.1.5-.3.6-.4.6-.6.5-.4.6-.3.6-.4.5-.4.6-.5.6-.3.6-.3.5-2 .6-2.2.6-2.1.5-2 .6-1.7.6-1.7.5-1.9.6-2 .6-2 .5-1.8.6-1.8.6-1.8.5-1.8.6-1.9.6-2.2.5-2.1.6-2.4.6-2.3.5-2.7.6-3.1.6-1.4.5-1.2.6-.8.6-1 .5-1 .6-.3.6-.3.5-.5.6-.4.6-.4.5-.7.6-.5.6-.4.5-.7.6-.6.6-.9.6-.8.5-.6.6-.3.6.3.5.3.6.1.6-.3.5.1.6-.4.6-1 .5-1 .6-1.1.6-1.3.5-1.3.6-1.2.6-1.7.5-2 .6-1.9.6-1.7.5-1.5.6-1.5.6-2.2.5-2.7.6-2.7.6-3 .5-3.2.6-3.3.6-3.9.5-3.8.6-2.7.6-3.2.5-2.3.6-2.9.6-2.3.6-1.4.5-.9.6-1.2.6-1.6.5-2.3.6-2.4.6-2.2.5-2.1.6-1.7.6-1.9.5-1.7.6-1.8.6-1.4.5-1 .6-.7.6-1.5.5-1.4.6-2.1.6-1.5.5-2 .6-3.3.6-3.7.5-3 .6-2.5.6-1.9.5-1.6.6-1.4.6-1.7.5-1.5.6-.8h.6l.5-.5.6.3.6 1.1.6.7.5 1.9.6 1.9.6 1.8.5 1.4.6 2.1.6 2.5.5 2.3.6 2.4.6 2 .5 2.2.6 1.9.6.6.5.9.6.3.6.3.5-.3.6 1.3.6.6.5-1.3.6-1.8.6-2.8.5-2.8.6-2.3.6-1.7.5-2.6.6-2.8.6-2.2.5-2.7.6-2.3.6-2.5.5-2.3.6-1 .6-.9.6-.4.5-.6.6-1 .6-1.8.5-2 .6-1.3.6-.5.5-.7.6-.6.6-.9.5-1 .6-1.2.6-1.4.5-1.5.6-1.2.6-1.1.5-1.2.6-1.4.6-1.9.5-2 .6-1.9.6-2.2.5-2.1.6-2.5.6-1.8.5-1.7.6-.7.6-1.2.5-.5.6-1 .6-.9.5-.7h1.2l.6-.3.5-.8.6-.8.6-.8.5-1.3.6-1.3.6-1.6.5-1.7.6-1.6.6-.9.5-1.2.6-1.3.6-2.4.5-2.5.6-2.1.6-1.7.5-1.1.6-1 .6-1.5.5-1.9.6-1.6.6-1.6.5-1.7.6-2 .6-1.4.5-1.1.6-1.1.6-1.1.5-.5.6-1.1.6-1 .5-1.1.6-.8.6-.6.6-1.3.5-1.3.6-2.2.6-2.2.5-2.9.6-2.5.6-2.7.5-2.8.6-1.9.6-1 .5-.8.6-.8.6-1.3.5-1 .6-1.6.6-1.2.5-.4.6-.9.6-.6.5-.6.6-.2.6-.4.5-.7.6-.6.6-.2h.5l.6.1.6 1 .5.6.6.7.6.9.5 1.1.6 1.7.6 3.4.6 3.9.5 2.7.6 2.1.6 1.7.5 1.4.6 2.5.6 2.2.5 2.1.6 3 .6 4.5.5 3.4.6 5.2.6 6.7.5 6.4.6 5.2.6 3.5.5 3.2.6 3.5.6 3.3h.5l.6-.6.6 1.2.5 1.8.6 2.7.6 3.4.5 2.2.6 2.4.6 4 .5 4 .6 2.1.6 4.1.5.9.6-.6.6-2.2.5-1.1.6-.3.6-1.6.6-.5.5-.9.6 1.9.6 1.6.5 1 .6-.4.6-.4.5.1.6 1.5.6.6.5.2.6.5.6 2 .5 2.3.6 1.6.6 1.8.5 2.9.6 2.5.6 2.1.5 4 .6 1.3.6 1 .5-.4.6-.2.6-.2.5.3.6.6.6-1.2.5-2.3.6-2.1.6-2.9.5-2.5.6-3.8.6-4.5.6-2.9.5-2.5.6-1.7.6-2.5.5-2.6.6-1.8.6-.8.5-.5.6.3.6.6.5 1 .6.7.6-.3.5.5.6.9.6 1.3.5.9.6.2.6.3.5.3.6.6h.6l.5-.7.6.5.6.6.5-1 .6-.8.6-.2.5.2.6-.1.6-1.2.5-1.2.6-.7.6-.7.6-1.3.5-1.9.6-2 .6-2.5.5-2.9.6-1.9.6-2.1.5-2.1.6-1.8.6-2 .5-1.5.6-1.8.6-1.7.5-2.2.6-2.8.6-3.2.5-2.6.6-2.3.6-2.3.5-2.3.6-1.9.6-1.5.5-1.4.6-1 .6-.6.5-1.8.6-2.2.6-1.7.5-1.9.6-2.6.6-2.3.5-1.6.6-1.4.6-1.2.6-2.1.5-1.6.6-1.1.6-1.1.5-.8.6-.7.6.3.5.1.6-.1.6-.6.5-.1.6.4.6.9.5.6.6 1.3.6 1.8.5 1.5.6 1.6.6 1.3.5 1.9.6 3.9.6 3.2.5 2.6.6 2.4.6 1.4.5.4.6-.6.6-.2h.5l.6.6.6-.3.5-.6.6-.7.6-.9.6-1.4.5-1.3.6-.6.6-1.1.5-1.3.6-1.7.6-3.4.5-2.9.6-2.9.6-2.8.5-2.1.6-1.9.6-2.2.5-2.1.6-2 .6-2.2.5-1.8.6-1.4.6-1 .5-.6.6-1.1.6-1.2.5-1.7.6-1.1.6-.6.5-.3.6.4.6.9.5 1.3.6 1.7" fill="none" stroke="#ff0018" stroke-width="2" vector-effect="non-scaling-stroke"/>
<path class="mpld3-path" d="M14.2 478.1H35.7l.6-33.7.6.2h.5l.6-.3.6-.1.5-.1h.6l.6-.2.5-.3.6-.4.6-.4.5-.2.6-.2.6-.2.5-.2.6-.2.6-.1.6-.1.5-.8.6-1 .6-1 .5-1 .6-.8.6-1.1.5-1 .6-1 .6-1 .5-1 .6-1 .6-1.1.5-1.2.6-1.1.6-1.3.5-1.3.6-1.3.6-1.5.5-1.5.6-1.6.6-1.7.5-1.7.6-1.5.6-1.5.5-1.3.6-1.1.6-1.1.5-1.2.6-1.2.6-1.1.5-1.2.6-1.2.6-1.1.5-1.3.6-1.4.6-1.5.6-1.6.5-1.5.6-1.4.6-1.4.5-.6.6-.5.6-.6.5-.5.6-.7.6-.6.5-.7.6-.7.6-.9.5-.9.6-.9.6-1.1.5-1.2.6-1.3.6-1.1.5-1.2.6-1.2.6-1.4.5-1.5.6-1.2.6-1.3.5-1.6.6-1.8.6-1.9.5-2.1.6-1.9.6-2 .5-1.8.6-2 .6-1.9.6-1.3.5-1.2.6-1.7.6-1.7.5-2 .6-1.9.6-1.9.5-2.1.6-2.3.6-2.3.5-2.3.6-2.5.6-2.3.5-2.5.6-2.2.6-2.2.5-2.2.6-2.3.6-2.1.5-2.2.6-2.4.6-2.3.5-2 .6-2.1.6-2.1.5-2 .6-1.8.6-1.9.5-1.6.6-1.4.6-.8.5-1.1.6-.6h.6l.6.1.5.1.6.3.6-.2h.5l.6.1.6-.5.5-.7.6-.2.6-.3.5.2.6.1.6-.4.5-.4.6-.6.6-.3.5-.1.6.4.6.4h.5l.6-.6.6-.5.5-.4.6-.2.6-.2.5-.2.6-.2.6.1.5-.2.6-.1.6-.2.5-.2.6-.2h1.2l.5-.2.6-.7.6-.2.5-.7.6-1.3.6-1.1.5-1.8.6-1.7.6-1.6.5-1.3.6-1.9.6-2.1.5-1.9.6-1.9.6-1.7.5-1.9.6-1.9.6-1.4.5-1.4.6-1.2.6-1.4.5-1.6.6-2.1.6-1.9.5-1.5.6-.6.6-.9.5-.6.6-1 .6-.9.5-.9.6-.7.6-.8.6-.7.5-1 .6-1 .6-1.1.5-1.6.6-1.7.6-1.7.5-1.9.6-1.9.6-1.7.5-1.5.6-1.5.6-1.6.5-1.8.6-1.3.6-1.4.5-1 .6-.8.6-.7.5-1 .6-1 .6-1.2.5-1.2.6-1.4.6-1.4.5-1.2.6-1.3.6-1.4.5-1.1.6-.9.6-1.2.5-1.1.6-1.6.6-1.6.6-1.7.5-1.5.6-1.6.6-1.6.5-2.2.6-2.2.6-2.2.5-2.2.6-1.8.6-1.5.5-1.1.6-.9.6-1.2.5-1.1.6-1.1.6-1.1.5-.7.6-1 .6-.7.5-.6.6-.8.6-.8.5-1.4.6-1.4.6-1.6.5-1.2.6-1.3.6-.9.5-.7.6-.2.6.1.5.2.6.2.6 1.1.6 1.2.5.7.6.9.6.4.5.4.6 1 .6 1 .5.8.6 1.2.6 1.9.5 1.6.6 2.6.6 3.4.5 3.7.6 2.9.6 2.1.5 2.1.6 2.2.6 2.5.5 1.7.6 1.7.6 1.9.5 2 .6 2.2.6 2.4.5 2.3.6 2.4.6 3 .5 3.5.6 3.3.6 3.7.5 3.1.6 3.1.6 2.1.5 2 .6 1.6.6.8.6 1.5.5 1.2.6.9.6.6.5 1 .6.7.6 1.2.5 1.8.6 1.8.6 1.5.5 2.1.6 2.3.6 2 .5 3.2.6 1.3.6.5.5.4.6.7.6.9.5 1.2.6.4.6.1.5.7.6.7.6.4h.5l.6.1.6-.6.5-.4.6-.8.6-1.3.5-1 .6-.9.6-1.1.6-.6.5-.4.6.6h.6l.5-.2.6 1 .6.3.5.3.6-.1.6.2.5.4.6.5.6.2.5-.4.6-.7.6-.4.5-1 .6-1.1.6-1.8.5-2.1.6-1.2.6-1.2.5-1.2.6-1 .6-1 .5-1.4.6-.8.6-.3.5.2.6.3.6-.1.5-.3.6-.5.6-.1.6-.2.5-.3.6-.5.6-1.2.5-1.3.6-.8.6-.8.5-1 .6-1.3.6-.7.5-.5.6-1.3.6-1.3.5-1.2.6-1.3.6-1.6.5-1.9.6-1.8.6-1.5.5-1.5.6-1.6.6-1.7.5-1.7.6-1.8.6-1.7.5-1.9.6-2.1.6-1.9.5-1.9.6-2.2.6-2 .5-1.6.6-1.6.6-1.7.6-2.5.5-2.3.6-1.9.6-1.7.5-1.5.6-1.5.6-.8.5-.7.6-.8.6-.8.5-.4.6-.7.6-.6.5-.5.6-.4.6-.3.5-.4.6-.1h.6l.5.3.6.9.6.8.5.8.6.6.6.3.5-.1.6-.1.6-.1.5-.1h.6l.6-.2.5-.1.6.1.6-.1h.6l.5.2.6.5.6.2h.5l.6.1.6.3.5.1.6-.2.6-.1.5-.4.6-.7.6-1.4.5-1.2.6-1 .6-.8.5-1.1.6-.9.6-.9.5-.8.6-1.2.6-1.2.5-1.2.6-1.1.6-1 .5-1 .6-1.4.6-1 .5-.9.6-.5" fill="none" stroke="#3600ff" stroke-width=".9" vector-effect="non-scaling-stroke"/>
<path class="mpld3-path" d="M14.2 437.8l.5 2.2.6 7.3.6-3.2.5-4.4.6.1.6 1.3.5 5.2.6.6.6 1.5.5-4 .6 2.6.6 1.6.5 2.1.6-.2.6-2.4.5-3.9.6-3.8.6.7.5 3.8.6-.7.6-3.4.6 3.9.5-3.5.6-1.3.6-5 .5 2.2.6 1.6.6 3.6.5 1.3.6-1 .6 2.5.5 2.7.6 4.5.6.3.5-3.5.6-1.6.6-1.5.5.7.6.6.6-2.5.5-4.4.6-2.6.6-.4.5 1.1.6-2.2.6-1.7.5-.6.6-1 .6-.8.5 3.5.6 3 .6 1.1.5 4.8.6-2.8.6.9.6.1.5-37.2.6-2.9.6 1.6.5.5.6 2.7.6-5 .5-2.7.6-.7.6-2.8.5 1.1.6 1.1.6-1.1.5-2.2.6 2.9.6-3.1.5 2.2.6 1 .6-3.8.5-4.8.6-8.7.6-2.8.5.6.6 9.4.6-4.5.5 4.2.6 8.2.6-2.2.5-3.1.6-2.2.6-.6.5-2 .6 1.1.6.2.5-2.9.6-1.4.6-3.3.6.9.5 2.8.6.9.6 1.8.5-2.4.6-1.6.6-1.1.5 4.8.6-5.7.6-4.4.5-1.5.6-5.7.6-5.1.5-1.7.6-.5.6-6.5.5-8.2h.6l.6 2.9.5.5.6-.4.6-9.5.5-10.2.6 1.5.6-5.9.5-7 .6-4.6.6-5.8.5-3.8.6 17.7.6-11.6.5 11.6.6-15.3.6 7.5.6 19.2.5 3.2.6-13.5.6-8.2.5-10.6.6-3.1.6 3.8.5-5.7.6-4.3.6-.7.5-4.2.6-6.4.6 2.9.5-.1.6 5.5.6-2 .5-6.8.6-4 .6-2.2.5-2 .6-7.8.6-5.6.5 2.9.6-.8.6 2.5.5 3.1.6 7.8.6-12.1.5 1.4.6 10.7.6 14.3.5-17.5.6 17 .6 19.1.6-4.7.5 21.9.6-5.8.6-5.4.5-11.9.6 13.5.6-.3.5-8.7.6 2.6.6-6.2.5 5.1.6-3.1.6-18 .5-7 .6-8.4.6 8.5.5 2.8.6 16.8.6-.1.5-16.7.6-15.9.6 1.9.5-4.7.6 3.7.6-.7.5-2.6.6-5.5.6 2.2.5-4.5.6-.3.6 1.8.5.3.6 7.4.6-3.2.6 1.6.5 2.1.6-3.2.6 1.2.5-5.9.6-.4.6-2 .5-.8.6-3.5.6-1.4.5-3.4.6-6.9.6-9 .5.1.6 1.9.6 1.5.5-1.4.6-2.8.6-1.8.5-5.5.6 2.3.6-2.3.5-3.2.6-4.4.6 5.7.5 4.3.6 15.2.6-8.1.5 8.9.6-11.9.6.5.5-4.1.6 5.8.6-1.7.6-3.2.5-8.2.6-1.2.6-3.4.5-12.1.6-4.8.6-2.7.5-6.2.6.3.6 8.7.5-.3.6 3.4.6-7.9.5-9.9.6 16.1.6-2.7.5 11 .6.6.6-5.8.5-10.7.6 3.2.6-7.1.5-4.3.6-7 .6-3.4.5 3.5.6-2.9.6-6.8.5 10.8.6-1.2.6 1.3.5 1.6.6-2 .6-6.2.6.6.5-.7.6-6.5.6-1.5.5-18.9.6-1.2.6-3 .5-7.8.6 12.9.6 10.6.5 1.8.6 3.8.6-13.9.5-.9.6.1.6 5.7.5 18 .6-9.6.6 4.3.5-5.2.6 8.5.6-5.6.5-11.7.6-.1.6-11 .5 2.9.6-.4.6 9.6.5 5.3.6 12.6.6 5.7.5 7.3.6-1.7.6 33.4.6 10.4.5-20.1.6 8 .6-17.1.5-3.4.6 17.7.6 1.9.5-7.3.6 6 .6 30.3.5-34.2.6 40.4.6 30.1.5 2.5.6-19.6.6-19.6h.5l.6 10.9.6-4.3.5-32.7.6.2.6 12.3.5 21.9.6 1.7.6 9.3.5-5.9.6 7.5.6 23.5.5 4.9.6-6.2.6 4.3.5-23h.6l.6-27.9.5 1.2.6-4.8.6-23.9.6 30.2.5-9 .6 20.3.6-3.4.5-.6.6-5.9.6 1.5.5 19.2.6 20.6.6-8.8.5 16.3.6 9.9.6 24.2.5 9.7.6-36.8.6 2.7.5-4.7.6-7 .6-10.8.5 11.3.6-21.8.6-15.7.5-7.8.6-.8.6.9.5 4.5.6 6.8.6-16.6.5-2.7.6-2.7.6-.9.5 18.6.6-2.3.6-4.3.6-4.6.5 9.5.6 12.8.6-22.2.5-14 .6 26.8.6-2.1.5-7.4.6 5.4.6 7.5.5 7.6.6-.8.6-13.6.5-.6.6 5 .6 4.3.5-5.7.6 1.6.6.8.5-3.6.6-.4.6-1 .5-1.3.6.3.6-9.2.5-7.1.6 1.1.6 6.8.5 12.5.6 1.5.6-14.5.5-.7.6-5.1.6 1.3.6-7.6.5-8.6.6-5.7.6-10.3.5-6.4.6 15.8.6-2.7.5-2.8.6 5.3.6-2.3.5-2.1.6-9.7.6.1.5-2 .6.6.6-5.4.5-3.6.6 4 .6-3.3.5.9.6.3.6-.5.5-5.3.6-.5.6.9.5-7.4.6-10.6.6 6.4.5-.1.6-14 .6 3.5.5 3.4.6 4.4.6 3.1.6-17.9.5 3.5.6 8.5.6 1 .5 5.2.6 2.8.6 19.5.5-5 .6-9 .6-10.6.5 11.2.6 2.9.6.4.5-.6.6 12.8.6-2.2.5-3.8.6 5 .6.8.5 11.9.6 23.9.6-10.7.5-2.6.6-4.6.6-14.4.5-16.4.6-.8.6 2.4.5-4.4.6.2.6-4.7.5-4.5.6-2.1.6-2.7.6 2 .5-.8.6 10.3.6-5.6.5-1.9.6 3.1.6-8.3.5-3.5.6-1.4.6-1.1.5-2.7.6-10.5.6-8.4.5 4.7.6-2.8.6-2.9.5 3.2.6 5.2.6 4 .5 3.9.6-6.1.6-2.6.5-1.8.6 7.8.6 8.9.5 8.9.6 4.1.6 9.2.5 3.3.6 9.3" fill="none" stroke="#00d5cd" stroke-width=".8" vector-effect="non-scaling-stroke"/>
<path class="mpld3-path" d="M14.2 437.8l.5 2.2.6 7.3.6-3.2.5-4.4.6.1.6 1.3.5 5.2.6.6.6 1.5.5-4 .6 2.6.6 1.6.5 2.1.6-.2.6-2.4.5-3.9.6-3.8.6.7.5 3.8.6-.7.6-3.4.6 3.9.5-3.5.6-1.3.6-5 .5 2.2.6 1.6.6 3.6.5 1.3.6-1 .6 2.5.5 2.7.6 4.5.6.3.5-3.5.6-1.6.6-1.5.5.7.6.6.6-2.5.5-4.4.6-2.6.6-.4.5 1.1.6-2.2.6-1.7.5-.6.6-1 .6-.8.5 3.5.6 3 .6 1.1.5 4.8.6-2.8.6.9.6.1.5-37.2.6-2.9.6 1.6.5.5.6 2.7.6-5 .5-2.7.6-.7.6-2.8.5 1.1.6 1.1.6-1.1.5-2.2.6 2.9.6-3.1.5 2.2.6 1 .6-3.8.5-4.8.6-8.7.6-2.8.5.6.6 9.4.6-4.5.5 4.2.6 8.2.6-2.2.5-3.1.6-2.2.6-.6.5-2 .6 1.1.6.2.5-2.9.6-1.4.6-3.3.6.9.5 2.8.6.9.6 1.8.5-2.4.6-1.6.6-1.1.5 4.8.6-5.7.6-4.4.5-1.5.6-5.7.6-5.1.5-1.7.6-.5.6-6.5.5-8.2h.6l.6 2.9.5.5.6-.4.6-9.5.5-10.2.6 1.5.6-5.9.5-7 .6-4.6.6-5.8.5-3.8.6 17.7.6-11.6.5 11.6.6-15.3.6 7.5.6 19.2.5 3.2.6-13.5.6-8.2.5-10.6.6-3.1.6 3.8.5-5.7.6-4.3.6-.7.5-4.2.6-6.4.6 2.9.5-.1.6 5.5.6-2 .5-6.8.6-4 .6-2.2.5-2 .6-7.8.6-5.6.5 2.9.6-.8.6 2.5.5 3.1.6 7.8.6-12.1.5 1.4.6 10.7.6 14.3.5-17.5.6 17 .6 19.1.6-4.7.5 21.9.6-5.8.6-5.4.5-11.9.6 13.5.6-.3.5-8.7.6 2.6.6-6.2.5 5.1.6-3.1.6-18 .5-7 .6-8.4.6 8.5.5 2.8.6 16.8.6-.1.5-16.7.6-15.9.6 1.9.5-4.7.6 3.7.6-.7.5-2.6.6-5.5.6 2.2.5-4.5.6-.3.6 1.8.5.3.6 7.4.6-3.2.6 1.6.5 2.1.6-3.2.6 1.2.5-5.9.6-.4.6-2 .5-.8.6-3.5.6-1.4.5-3.4.6-6.9.6-9 .5.1.6 1.9.6 1.5.5-1.4.6-2.8.6-1.8.5-5.5.6 2.3.6-2.3.5-3.2.6-4.4.6 5.7.5 4.3.6 15.2.6-8.1.5 8.9.6-11.9.6.5.5-4.1.6 5.8.6-1.7.6-3.2.5-8.2.6-1.2.6-3.4.5-12.1.6-4.8.6-2.7.5-6.2.6.3.6 8.7.5-.3.6 3.4.6-7.9.5-9.9.6 16.1.6-2.7.5 11 .6.6.6-5.8.5-10.7.6 3.2.6-7.1.5-4.3.6-7 .6-3.4.5 3.5.6-2.9.6-6.8.5 10.8.6-1.2.6 1.3.5 1.6.6-2 .6-6.2.6.6.5-.7.6-6.5.6-1.5.5-18.9.6-1.2.6-3 .5-7.8.6 12.9.6 10.6.5 1.8.6 3.8.6-13.9.5-.9.6.1.6 5.7.5 18 .6-9.6.6 4.3.5-5.2.6 8.5.6-5.6.5-11.7.6-.1.6-11 .5 2.9.6-.4.6 9.6.5 5.3.6 12.6.6 5.7.5 7.3.6-1.7.6 33.4.6 10.4.5-20.1.6 8 .6-17.1.5-3.4.6 17.7.6 1.9.5-7.3.6 6 .6 30.3.5-34.2.6 40.4.6 30.1.5 2.5.6-19.6.6-19.6h.5l.6 10.9.6-4.3.5-32.7.6.2.6 12.3.5 21.9.6 1.7.6 9.3.5-5.9.6 7.5.6 23.5.5 4.9.6-6.2.6 4.3.5-23h.6l.6-27.9.5 1.2.6-4.8.6-23.9.6 30.2.5-9 .6 20.3.6-3.4.5-.6.6-5.9.6 1.5.5 19.2.6 20.6.6-8.8.5 16.3.6 9.9.6 24.2.5 9.7.6-36.8.6 2.7.5-4.7.6-7 .6-10.8.5 11.3.6-21.8.6-15.7.5-7.8.6-.8.6.9.5 4.5.6 6.8.6-16.6.5-2.7.6-2.7.6-.9.5 18.6.6-2.3.6-4.3.6-4.6.5 9.5.6 12.8.6-22.2.5-14 .6 26.8.6-2.1.5-7.4.6 5.4.6 7.5.5 7.6.6-.8.6-13.6.5-.6.6 5 .6 4.3.5-5.7.6 1.6.6.8.5-3.6.6-.4.6-1 .5-1.3.6.3.6-9.2.5-7.1.6 1.1.6 6.8.5 12.5.6 1.5.6-14.5.5-.7.6-5.1.6 1.3.6-7.6.5-8.6.6-5.7.6-10.3.5-6.4.6 15.8.6-2.7.5-2.8.6 5.3.6-2.3.5-2.1.6-9.7.6.1.5-2 .6.6.6-5.4.5-3.6.6 4 .6-3.3.5.9.6.3.6-.5.5-5.3.6-.5.6.9.5-7.4.6-10.6.6 6.4.5-.1.6-14 .6 3.5.5 3.4.6 4.4.6 3.1.6-17.9.5 3.5.6 8.5.6 1 .5 5.2.6 2.8.6 19.5.5-5 .6-9 .6-10.6.5 11.2.6 2.9.6.4.5-.6.6 12.8.6-2.2.5-3.8.6 5 .6.8.5 11.9.6 23.9.6-10.7.5-2.6.6-4.6.6-14.4.5-16.4.6-.8.6 2.4.5-4.4.6.2.6-4.7.5-4.5.6-2.1.6-2.7.6 2 .5-.8.6 10.3.6-5.6.5-1.9.6 3.1.6-8.3.5-3.5.6-1.4.6-1.1.5-2.7.6-10.5.6-8.4.5 4.7.6-2.8.6-2.9.5 3.2.6 5.2.6 4 .5 3.9.6-6.1.6-2.6.5-1.8.6 7.8.6 8.9.5 8.9.6 4.1.6 9.2.5 3.3.6 9.3" fill="none" stroke="#10b4b2" stroke-width="2" vector-effect="non-scaling-stroke"/>
</g>
<g class="mpld3-xaxis">
<g class="tick">
<path d="m134.16 569.6v6"/>
<text transform="translate(134.16 569.6)" y="9" dy=".71em" text-anchor="middle">0</text>
</g>
<g class="tick">
<path d="m190.93 569.6v6"/>
<text transform="translate(190.93 569.6)" y="9" dy=".71em" text-anchor="middle">100</text>
</g>
<g class="tick">
<path d="m247.69 569.6v6"/>
<text transform="translate(247.69 569.6)" y="9" dy=".71em" text-anchor="middle">200</text>
</g>
<g class="tick">
<path d="m304.45 569.6v6"/>
<text transform="translate(304.45 569.6)" y="9" dy=".71em" text-anchor="middle">300</text>
</g>
<g class="tick">
<path d="m361.22 569.6v6"/>
<text transform="translate(361.22 569.6)" y="9" dy=".71em" text-anchor="middle">400</text>
</g>
<g class="tick">
<path d="m417.98 569.6v6"/>
<text transform="translate(417.98 569.6)" y="9" dy=".71em" text-anchor="middle">500</text>
</g>
<path class="domain" d="m120 575.6v-6h311.6v6"/>
</g>
<g class="mpld3-yaxis">
<g class="tick">
<path d="m120 569.6h-6"/>
<text transform="translate(120 569.6)" x="-9" dy=".32em" text-anchor="end">800</text>
</g>
<g class="tick">
<path d="m120 511.62h-6"/>
<text transform="translate(120 511.62)" x="-9" dy=".32em" text-anchor="end">1,000</text>
</g>
<g class="tick">
<path d="m120 453.65h-6"/>
<text transform="translate(120 453.65)" x="-9" dy=".32em" text-anchor="end">1,200</text>
</g>
<g class="tick">
<path d="m120 395.67h-6"/>
<text transform="translate(120 395.67)" x="-9" dy=".32em" text-anchor="end">1,400</text>
</g>
<g class="tick">
<path d="m120 337.69h-6"/>
<text transform="translate(120 337.69)" x="-9" dy=".32em" text-anchor="end">1,600</text>
</g>
<g class="tick">
<path d="m120 279.72h-6"/>
<text transform="translate(120 279.72)" x="-9" dy=".32em" text-anchor="end">1,800</text>
</g>
<g class="tick">
<path d="m120 221.74h-6"/>
<text transform="translate(120 221.74)" x="-9" dy=".32em" text-anchor="end">2,000</text>
</g>
<g class="tick">
<path d="m120 163.76h-6"/>
<text transform="translate(120 163.76)" x="-9" dy=".32em" text-anchor="end">2,200</text>
</g>
<g class="tick">
<path d="m120 105.79h-6"/>
<text transform="translate(120 105.79)" x="-9" dy=".32em" text-anchor="end">2,400</text>
</g>
<path class="domain" d="m114 76.8h6v492.8h-6"/>
</g>
</g>
</svg>