<svg id="Logo_Vector" xmlns="http://www.w3.org/2000/svg" xmlns:xlink="http://www.w3.org/1999/xlink" viewBox="37 86 842 730" style="cursor: crosshair;" class="logo-fire">
<defs><style>
.logo-fire_:hover g path {fill: white !Important;}
.lf:hover path {fill: orangered !Important;}
.cls-1{fill:url(#radial-gradient)}.cls-2{stroke:#b63648;stroke-width:1.6px;fill:url(#lg)}.cls-10,.cls-11,.cls-12,.cls-13,.cls-14,.cls-15,.cls-16,.cls-17,.cls-18,.cls-19,.cls-2,.cls-20,.cls-21,.cls-22,.cls-23,.cls-24,.cls-25,.cls-26,.cls-27,.cls-28,.cls-29,.cls-30,.cls-31,.cls-32,.cls-33,.cls-34,.cls-35,.cls-36,.cls-37,.cls-38,.cls-39,.cls-4,.cls-40,.cls-41,.cls-42,.cls-43,.cls-44,.cls-45,.cls-46,.cls-47,.cls-48,.cls-49,.cls-5,.cls-50,.cls-51,.cls-52,.cls-53,.cls-54,.cls-55,.cls-56,.cls-57,.cls-58,.cls-6,.cls-7,.cls-8,.cls-9{fill-rule:evenodd}.cls-3{filter:url(#filter)}.cls-4{fill:#fd3c53}.cls-5{fill:#b13746}.cls-6{fill:#fc8daf}.cls-7{fill:url(#lg-2)}.cls-8{fill:url(#lg-3)}.cls-9{fill:url(#lg-4)}.cls-10{fill:url(#lg-5)}.cls-11{fill:url(#lg-6)}.cls-12{fill:url(#lg-7)}.cls-13{fill:url(#lg-8)}.cls-14{fill:url(#lg-9)}.cls-15{fill:url(#lg-10)}.cls-16{fill:url(#lg-11)}.cls-17{fill:url(#lg-12)}.cls-18{fill:url(#lg-13)}.cls-19{fill:url(#lg-14)}.cls-20{fill:url(#lg-15)}.cls-21{fill:url(#lg-16)}.cls-22{fill:url(#lg-17)}.cls-23{fill:url(#lg-18)}.cls-24{fill:url(#lg-19)}.cls-25{fill:url(#lg-20)}.cls-26{fill:url(#lg-21)}.cls-27{fill:url(#lg-22)}.cls-28{fill:url(#lg-23)}.cls-29{fill:url(#lg-24)}.cls-30{fill:url(#lg-25)}.cls-31{fill:url(#lg-26)}.cls-32{fill:url(#lg-27)}.cls-33{fill:url(#lg-28)}.cls-34{fill:url(#lg-29)}.cls-35{fill:url(#lg-30)}.cls-36{fill:url(#lg-31)}.cls-37{fill:url(#lg-32)}.cls-38{fill:url(#lg-33)}.cls-39{fill:url(#lg-34)}.cls-40{fill:url(#lg-35)}.cls-41{fill:url(#lg-36)}.cls-42{fill:url(#lg-37)}.cls-43{fill:url(#lg-38)}.cls-44{fill:url(#lg-39)}.cls-45{fill:url(#lg-40)}.cls-46{fill:url(#lg-41)}.cls-47{fill:url(#lg-42)}.cls-48{fill:url(#lg-43)}.cls-49{fill:url(#lg-44)}.cls-50{fill:url(#lg-45)}.cls-51{fill:url(#lg-46)}.cls-52{fill:url(#lg-47)}.cls-53{fill:url(#lg-48)}.cls-54{fill:url(#lg-49)}.cls-55{fill:url(#lg-50)}.cls-56{fill:url(#lg-51)}.cls-57{fill:url(#lg-52)}.cls-58{stroke:#f52538;stroke-linejoin:round;stroke-width:.8px;fill:url(#lg-53);filter:url(#filter-2)}
</style>
<filter id="filter" filterUnits="userSpaceOnUse">
  <feGaussianBlur result="blur" stdDeviation="7" in="SourceAlpha"/>
  <feComposite result="composite"/>
  <feComposite result="composite-2"/>
  <feComposite result="composite-3"/>
  <feFlood result="flood" flood-color="#ff3e3c" flood-opacity="0.14"/>
  <feComposite result="composite-4" operator="in" in2="composite-3"/>
  <feBlend result="blend" mode="blendDivide" in2="SourceGraphic"/>
  <feBlend result="blend-2" in="SourceGraphic"/>
</filter>
<radialGradient id="radial-gradient" cx="460" cy="460" r="460" gradientUnits="userSpaceOnUse">
  <stop offset="0" stop-color="#2c3947"/>
  <stop offset="0.35" stop-color="#28333f"/>
  <stop offset="0.69" stop-color="#252e39"/>
  <stop offset="0.85" stop-color="#232c36"/>
  <stop offset="1" stop-color="#212833"/>
</radialGradient>
<linearGradient id="lg" x1="457" y1="800" x2="457" y2="727" gradientUnits="userSpaceOnUse">
  <stop offset="0" stop-color="#b63648"/>
  <stop offset="1" stop-color="#953241"/>
</linearGradient>
<linearGradient id="lg-2" x1="757" y1="218" x2="757" y2="93" gradientUnits="userSpaceOnUse">
  <stop offset="0" stop-color="#97283c"/>
  <stop offset="1" stop-color="#462835"/><!---->
</linearGradient>
<linearGradient id="lg-3" x1="725" y1="307" x2="725" y2="213" gradientUnits="userSpaceOnUse">
  <stop offset="0" stop-color="#94283c"/>
  <stop offset="1" stop-color="#e1213a"/>
</linearGradient>
<linearGradient id="lg-4" x1="700" y1="265" x2="700" y2="213" xlink:href="#lg-3"/>
<linearGradient id="lg-5" x1="690" y1="350" x2="690" y2="265" xlink:href="#lg-3"/>
<linearGradient id="lg-6" x1="690" y1="428" x2="690" y2="265" xlink:href="#lg-3"/>
<linearGradient id="lg-7" x1="690" y1="524" x2="690" y2="350" gradientUnits="userSpaceOnUse">
  <stop offset="0" stop-color="#f07232"/>
  <stop offset="1" stop-color="#f6e535"/><!----><!---->
</linearGradient>
<linearGradient id="lg-8" x1="727" y1="476" x2="690" y2="476" xlink:href="#lg-7"/>
<linearGradient id="lg-9" x1="737" y1="523" x2="737" y2="366" xlink:href="#lg-3"/>
<linearGradient id="lg-10" x1="737" y1="428" x2="737" y2="339" xlink:href="#lg-3"/>
<linearGradient id="lg-11" x1="737" y1="366" x2="737" y2="268" xlink:href="#lg-3"/>
<linearGradient id="lg-12" x1="743" y1="366" x2="743" y2="269" xlink:href="#lg-3"/>
<linearGradient id="lg-13" x1="732" y1="275" x2="732" y2="220" xlink:href="#lg-3"/>
<linearGradient id="lg-14" x1="763" y1="523" x2="763" y2="366" xlink:href="#lg-7"/>
<linearGradient id="lg-15" x1="763" y1="523" x2="763" y2="439" xlink:href="#lg-7"/>
<linearGradient id="lg-16" x1="797" y1="523" x2="797" y2="439" gradientUnits="userSpaceOnUse">
  <stop offset="0" stop-color="#f6e535"/>
  <stop offset="1" stop-color="#f07232"/>
</linearGradient>
<linearGradient id="lg-17" x1="828" y1="489" x2="828" y2="439" xlink:href="#lg-3"/>
<linearGradient id="lg-18" x1="811" y1="477" x2="811" y2="367" xlink:href="#lg-3"/>
<linearGradient id="lg-19" x1="763" y1="390" x2="763" y2="275" xlink:href="#lg-3"/>
<linearGradient id="lg-20" x1="797" y1="555" x2="797" y2="489" xlink:href="#lg-7"/>
<linearGradient id="lg-21" x1="789" y1="604" x2="789" y2="522" xlink:href="#lg-7"/>
<linearGradient id="lg-22" x1="759" y1="604" x2="759" y2="522" gradientUnits="userSpaceOnUse">
  <stop offset="0" stop-color="#f25132"/>
  <stop offset="1" stop-color="#f3f837"/><!----><!----><!---->
</linearGradient>
<linearGradient id="lg-23" x1="732" y1="604" x2="732" y2="522" xlink:href="#lg-7"/>
<linearGradient id="lg-24" x1="711" y1="604" x2="711" y2="523" xlink:href="#lg-16"/>
<linearGradient id="lg-25" x1="695" y1="602" x2="695" y2="523" xlink:href="#lg-7"/>
<linearGradient id="lg-26" x1="730" y1="615" x2="730" y2="602" xlink:href="#lg-16"/>
<linearGradient id="lg-27" x1="778" y1="617" x2="686" y2="617" gradientUnits="userSpaceOnUse">
  <stop offset="0" stop-color="#ce223c"/>
  <stop offset="1" stop-color="#f3f837"/>
</linearGradient>
<linearGradient id="lg-28" x1="761" y1="604" x2="805" y2="646" gradientUnits="userSpaceOnUse">
  <stop offset="0" stop-color="#d33932"/>
  <stop offset="1" stop-color="#652e40"/><!----><!----><!----><!---->
</linearGradient>
<linearGradient id="lg-29" x1="801" y1="646" x2="801" y2="604" gradientUnits="userSpaceOnUse">
  <stop offset="0" stop-color="#d23632"/>
  <stop offset="1" stop-color="#f6e535"/>
</linearGradient>
<linearGradient id="lg-30" x1="800" y1="615" x2="800" y2="555" xlink:href="#lg-7"/>
<linearGradient id="lg-31" x1="819" y1="615" x2="819" y2="555" xlink:href="#lg-7"/>
<linearGradient id="lg-32" x1="840" y1="588" x2="840" y2="535" xlink:href="#lg-7"/>
<linearGradient id="lg-33" x1="840" y1="555" x2="840" y2="490" xlink:href="#lg-7"/>
<linearGradient id="lg-34" x1="853" y1="559" x2="853" y2="477" xlink:href="#lg-3"/>
<linearGradient id="lg-35" x1="849" y1="588" x2="849" y2="534" xlink:href="#lg-3"/>
<linearGradient id="lg-36" x1="818" y1="646" x2="818" y2="587" gradientUnits="userSpaceOnUse">
  <stop offset="0" stop-color="#f07232"/>
  <stop offset="1" stop-color="#f6e535"/>
</linearGradient>
<linearGradient id="lg-37" x1="794" y1="688" x2="794" y2="646" xlink:href="#lg-3"/>
<linearGradient id="lg-38" x1="783" y1="688" x2="783" y2="630" gradientUnits="userSpaceOnUse">
  <stop offset="0" stop-color="#6b2d3d"/>
  <stop offset="1" stop-color="#b3283f"/><!----><!----><!----><!----><!---->
</linearGradient>
<linearGradient id="lg-39" x1="722" y1="688" x2="722" y2="630" gradientUnits="userSpaceOnUse">
  <stop offset="0" stop-color="#b3283f"/>
  <stop offset="1" stop-color="#6b2d3d"/>
</linearGradient>
<linearGradient id="lg-40" x1="712" y1="680" x2="712" xlink:href="#lg-38"/>
<linearGradient id="lg-41" x1="712" y1="632" x2="712" y2="615" gradientUnits="userSpaceOnUse">
  <stop offset="0" stop-color="#c32a44"/>
  <stop offset="1" stop-color="#e34538"/>
</linearGradient>
<linearGradient id="lg-42" x1="663" y1="680" x2="663" y2="632" gradientUnits="userSpaceOnUse">
  <stop offset="0" stop-color="#6b2d3d"/>
  <stop offset="1" stop-color="#d13039"/><!----><!----><!----><!----><!----><!---->
</linearGradient>
<linearGradient id="lg-43" x1="663" y1="633" x2="663" y2="614" gradientUnits="userSpaceOnUse">
  <stop offset="0" stop-color="#e34538"/>
  <stop offset="1" stop-color="#c32a44"/>
</linearGradient>
<linearGradient id="lg-44" x1="676" y1="632" x2="676" xlink:href="#lg-43"/>
<linearGradient id="lg-45" x1="676" y1="615" x2="676" y2="600" xlink:href="#lg-3"/>
<linearGradient id="lg-46" x1="676" y1="615" x2="674" y2="558" xlink:href="#lg-3"/>
<linearGradient id="lg-47" x1="681" y1="600" x2="681" y2="525" xlink:href="#lg-3"/>
<linearGradient id="lg-48" x1="679" y1="524" x2="680" y2="352" xlink:href="#lg-3"/>
<linearGradient id="lg-49" x1="665" y1="501" x2="665" y2="352" xlink:href="#lg-3"/>
<linearGradient id="lg-50" x1="662" y1="385" x2="662" y2="301" xlink:href="#lg-3"/>
<linearGradient id="lg-51" x1="678" y1="352" x2="678" y2="265" xlink:href="#lg-3"/>
<linearGradient id="lg-52" x1="647" y1="680" x2="647" y2="633" xlink:href="#lg-42"/>
<linearGradient id="lg-53" x1="457" y1="800" x2="457" y2="727" gradientUnits="userSpaceOnUse">
  <stop offset="0" stop-color="#b53651"/>
  <stop offset="1" stop-color="#fc2945"/>
</linearGradient></defs>
<rect id="rr_1_c" class="_cls-1" style='fill: rgba(0,0,0,0)' width="920" height="920" rx="74.5" ry="74.5"/><g class="lf">
<path id="p2-4" class="cls-2" d="M251.8,744.708l12.489,27.708H240.527Zm-28.057,47.1h-1.1q-3.484,0-4.7.784a3.1,3.1,0,0,0-1.22,2.824,3.285,3.285,0,0,0,1.22,2.953q1.219,0.811,4.938.811h15.277q4.239,0,5.489-.811a3.25,3.25,0,0,0,1.249-2.953,2.964,2.964,0,0,0-1.394-2.8q-1.393-.81-5.228-0.811h-5.634l5-12.442h29.509l5.635,12.442h-5.4q-3.777,0-5.141.811a2.981,2.981,0,0,0-1.365,2.8,3.248,3.248,0,0,0,1.249,2.953q1.248,0.811,5.663.811h15.8q3.02,0,4.125-.811a3.446,3.446,0,0,0,1.1-2.953,3.16,3.16,0,0,0-1.162-2.824,8.279,8.279,0,0,0-4.3-.784H282.35l-22.712-51.077a6.554,6.554,0,0,0-2.062-2.8q-1.134-.758-4.328-0.758H236.693q-5.577,0-6.826.81a3.253,3.253,0,0,0-1.249,2.954,3.121,3.121,0,0,0,1.424,2.9,10.25,10.25,0,0,0,4.966.862h8.481ZM316.7,739.951q1.132,0.993,4.851.993,3.774,0,4.85-1.072t1.075-5.567q0-4.6-1.162-5.83t-4.763-1.228q-3.718,0-4.851,1.464t-1.133,7.11Q315.565,738.958,316.7,739.951Zm9.614,13.07a1.78,1.78,0,0,0-.9-1.569,4.565,4.565,0,0,0-2.469-.575h-17.02a5.6,5.6,0,0,0-3.486.909,3.245,3.245,0,0,0-1.161,2.725,3.287,3.287,0,0,0,1.253,2.778,5.907,5.907,0,0,0,3.643.96h11.369v33.563H299.823a6.206,6.206,0,0,0-3.659.889,3.143,3.143,0,0,0-1.22,2.719,3.418,3.418,0,0,0,1.162,2.823,5.456,5.456,0,0,0,3.485.941H344.61a6.271,6.271,0,0,0,3.747-.811,3.6,3.6,0,0,0,1.016-2.953,3.31,3.31,0,0,0-1.075-2.745,5.3,5.3,0,0,0-3.34-.863H326.312V753.021Zm120.859,38.791v-23.16h15.336v1.516q0,3.817.813,5.124a3.145,3.145,0,0,0,2.9,1.307,3.329,3.329,0,0,0,2.759-.993,6.057,6.057,0,0,0,.785-3.608V758.719a4.9,4.9,0,0,0-.843-3.189,3.356,3.356,0,0,0-2.7-.993,3.145,3.145,0,0,0-2.9,1.307q-0.815,1.306-.813,5.123v1.359H447.171V744.708h31.542v7.476q0,4.026.872,5.176t3.311,1.15a4.337,4.337,0,0,0,2.991-.915,3.506,3.506,0,0,0,1.017-2.745V741.362a4.354,4.354,0,0,0-1.017-3.11,3.933,3.933,0,0,0-2.991-1.072H431.487a4.294,4.294,0,0,0-3.02.967,3.619,3.619,0,0,0-1.046,2.8,3.251,3.251,0,0,0,1.249,2.954q1.248,0.811,5.664.81h3.659v47.1h-5.576a6.708,6.708,0,0,0-3.863.837,3.219,3.219,0,0,0-1.133,2.771,3.619,3.619,0,0,0,1.046,2.8,4.289,4.289,0,0,0,3.02.967h28.638a4.291,4.291,0,0,0,3.02-.967,3.619,3.619,0,0,0,1.046-2.8,3.268,3.268,0,0,0-1.1-2.745,5.783,5.783,0,0,0-3.543-.863H447.171Zm74.778-51.861q1.133,0.993,4.85.993,3.776,0,4.85-1.072t1.075-5.567q0-4.6-1.162-5.83t-4.763-1.228q-3.718,0-4.85,1.464t-1.133,7.11Q520.816,738.958,521.949,739.951Zm9.613,13.07a1.778,1.778,0,0,0-.9-1.569,4.563,4.563,0,0,0-2.469-.575h-17.02a5.6,5.6,0,0,0-3.485.909,3.246,3.246,0,0,0-1.162,2.725,3.288,3.288,0,0,0,1.254,2.778,5.905,5.905,0,0,0,3.643.96h11.368v33.563H505.074a6.209,6.209,0,0,0-3.66.889,3.143,3.143,0,0,0-1.22,2.719,3.418,3.418,0,0,0,1.162,2.823,5.456,5.456,0,0,0,3.485.941H549.86a6.271,6.271,0,0,0,3.747-.811,3.6,3.6,0,0,0,1.016-2.953,3.313,3.313,0,0,0-1.074-2.745,5.3,5.3,0,0,0-3.34-.863H531.562V753.021Zm130.851-8.783q7.957,0,11.966,2.666a8.916,8.916,0,0,1,4.008,7.946,8.75,8.75,0,0,1-4.095,7.869q-4.1,2.64-12.228,2.64H650.04V744.238h12.373ZM650.04,772.312h7.726a11.259,11.259,0,0,1,5.9,1.359q2.235,1.36,5.663,6.012L680.478,794.9a5.634,5.634,0,0,0,.523.523q2.73,3.764,5.577,3.764h6.564a4.182,4.182,0,0,0,2.991-.967,3.682,3.682,0,0,0,1.017-2.8,3.105,3.105,0,0,0-1.22-2.8q-1.22-.81-4.473-0.811H689.54l-11.676-16.1a16.8,16.8,0,0,0-2.294-2.509,13.538,13.538,0,0,0-2.7-1.83q7.318-1.673,11.414-5.986a14.471,14.471,0,0,0,4.1-10.325,16.349,16.349,0,0,0-2.236-8.313,17.279,17.279,0,0,0-6.128-6.221,21.173,21.173,0,0,0-7.407-2.588,84.935,84.935,0,0,0-13.273-.758H634.821a4.518,4.518,0,0,0-3.05.889,3.353,3.353,0,0,0-1.017,2.666,2.913,2.913,0,0,0,1.278,2.771q1.278,0.732,5.635.732h3.369v47.574H635.75a6.727,6.727,0,0,0-3.834.837,3.181,3.181,0,0,0-1.162,2.771,3.622,3.622,0,0,0,1.046,2.8,4.292,4.292,0,0,0,3.021.967h19.517q3.369,0,4.589-.837a3.292,3.292,0,0,0,1.22-2.927,2.976,2.976,0,0,0-1.394-2.771,9.849,9.849,0,0,0-4.763-.837h-3.95v-19.5Z"/></g>
<g id="Vector" class="cls-3"><g id="Letters">
<g class="lf"><path id="p1" class="cls-4" d="M219.7,397.34L82.48,643.207l-34.9-53.138,172.9-307.724,138,251.414-58.69.8Z"/></g>
<g class="lf"><path id="p1_c" class="cls-5" d="M357.7,533.759L220.483,283.138l57.9,0.793L447.31,586.9H172.1l30.931-52.3Z"/></g>
<g class="lf"><path id="p1_co2" class="cls-6" d="M172.9,586.9h273.62l-27.758,55.517H82.483l138-246.655,30.138,54.724Z"/></g>
<g class="lf"><path id="p2" class="cls-4" d="M528.207,650.345l-48.379-38.862-6.345-271.242,50.758,34.9Z"/></g>
<g class="lf"><path id="p2c" class="cls-6" d="M580.552,621.793l-52.345,29.345-3.966-276,55.518,58.69Z"/></g>
<g class="lf"><path id="p2c_2" class="cls-6" d="M575.793,314.069l-51.552,23V272.034l51.552-23v65.035Z"/></g>
<g class="lf"><path id="p2c_3" class="cls-4" d="M524.241,337.069l-49.965-31.724-0.793-65.035,50.758,31.724v65.035Z"/></g>
<g class="lf"><path id="p2c_4" class="cls-5" d="M524.241,272.034L473.483,240.31l52.345-23,49.965,31.724Z"/></g>
</g><g id="Shape">
<g class="lf"><path class="cls-7" d="M739.97 218.1l-29.34-5.55L804.21 92.79Z"/></g>
<g class="lf"><path class="cls-8" d="M739.97 218.1l-29.34-5.55v94.38Z"/></g>
<g class="lf"><path class="cls-9" d="M687.62 264.9l23-51.55V264.9h-23Z"/></g>
<g class="lf"><path class="cls-10" d="M687.62 264.9l-19.03 84.86L710.62 264.9h-23Z"/></g>
<g class="lf"><path class="cls-11" d="M710.62 428.28l-42.03-78.52L710.62 264.9V428.28Z"/></g>
<g class="lf"><path class="cls-12" d="M710.62 428.28l-42.03-78.52L690 524.24Z"/></g>
<g class="lf"><path class="cls-13" d="M710.62 428.28l16.66 94.38L690 524.24Z"/></g>
<g class="lf"><path class="cls-14" d="M710.62 428.28l16.66 94.38 35.69-156.24Z"/></g>
<g class="lf"><path class="cls-15" d="M710.62 428.28V338.66l52.35 27.76Z"/></g>
<g class="lf"><path class="cls-16" d="M723.31 268.07l-12.69 39.66v30.93l52.35 27.76Z"/></g>
<g class="lf"><path class="cls-17" d="M723.31 268.86l19.04 6.35 20.62 91.21Z"/></g>
<g class="lf"><path class="cls-18" d="M722.52 269.65l19.83 5.55-3.17-55.52Z"/></g>
<g class="lf"><path class="cls-19" d="M798.66 438.59l-71.38 84.07 35.69-156.24Z"/></g>
<g class="lf"><path class="cls-20" d="M798.66 438.59l-71.38 84.07 27.76-0.79Z"/></g>
<g class="lf"><path class="cls-21" d="M798.66 438.59L839.1 489.35l-84.07 32.52Z"/></g>
<g class="lf"><path class="cls-22" d="M798.66 438.59L839.1 489.35l18.24-11.9Z"/></g>
<g class="lf"><path class="cls-23" d="M798.66 438.59l-34.9-71.38 93.59 110.24Z"/></g>
<g class="lf"><path class="cls-24" d="M742.35 275.21l20.62 92 20.62 23Z"/></g>
<g class="lf"><path class="cls-25" d="M822.45 555.17L839.1 489.35l-84.07 32.52Z"/></g>
<g class="lf"><path class="cls-26" d="M822.45 555.17l-44.41 48.38-23-81.69Z"/></g>
<g class="lf"><path class="cls-27" d="M739.17 602.76l38.86 0.79-23-81.69Z"/></g>
<g class="lf"><path class="cls-28" d="M739.17 604.35l-30.93-81.69 46.79-0.79Z"/></g>
<g class="lf"><path class="cls-29" d="M739.17 604.35l-30.93-81.69-26.17 79.31Z"/></g>
<g class="lf"><path class="cls-30" d="M689.21 523.45l19.03-0.79-26.17 79.31Z"/></g>
<g class="lf"><path class="cls-31" d="M686.83 615.45l91.21-11.9-95.17-1.59Z"/></g>
<g class="lf"><path class="cls-32" d="M686.03 615.45l92-11.9-36.48 26.17Z"/></g>
<g class="lf"><path class="cls-33" d="M824.03 646.38l-46-42.83-36.48 26.17Z"/></g>
<g class="lf"><path class="cls-34" d="M824.03 646.38l-46-42.83 29.35 11.9Z"/></g>
<g class="lf"><path class="cls-35" d="M822.45 555.17l-44.41 48.38 29.35 11.9Z"/></g>
<g class="lf"><path class="cls-36" d="M822.45 555.17l8.72 30.93-23.79 29.35Z"/></g>
<g class="lf"><path class="cls-37" d="M822.45 555.17l8.72 32.52 25.38-52.34Z"/></g>
<g class="lf"><path class="cls-38" d="M822.45 555.17l15.86-65.03 19.04 45.21Z"/></g>
<g class="lf"><path class="cls-39" d="M857.35 477.45l-19.03 12.69 28.55 69Z"/></g>
<g class="lf"><path class="cls-40" d="M857.35 533.76L830.38 587.69l36.48-28.55Z"/></g>
<g class="lf"><path class="cls-41" d="M824.03 645.59l6.35-58.69-23.79 29.34Z"/></g>
<g class="lf"><path class="cls-42" d="M824.03 645.59l-26.96 34.1-33.31 8.72Z"/></g>
<g class="lf"><path class="cls-43" d="M824.03 645.59l-82.48-15.86 22.21 58.69Z"/></g>
<g class="lf"><path class="cls-44" d="M679.69 679.69l61.86-49.97 22.21 58.69Z"/></g>
<g class="lf"><path class="cls-45" d="M679.69 679.69l61.86-49.97-58.69 2.38Z"/></g>
<g class="lf"><path class="cls-46" d="M686.03 615.45l55.52 14.28-58.69 2.38Z"/></g>
<g class="lf"><path class="cls-47" d="M679.69 679.69L643.21 632.9l39.66-0.79Z"/></g>
<g class="lf"><path class="cls-48" d="M665.41 613.86L643.21 632.9l39.66-0.79Z"/></g>
<g class="lf"><path class="cls-49" d="M665.41 613.86l20.62 1.59L682.86 632.1Z"/></g>
<g class="lf"><path class="cls-50" d="M665.41 613.86l21.41 1.59-3.97-15.07Z"/></g>
<g class="lf"><path class="cls-51" d="M665.41 613.86l7.93-55.52 9.52 42.03Z"/></g>
<g class="lf"><path class="cls-52" d="M689.21 525.03l-15.86 33.31 9.52 42.03Z"/></g>
<g class="lf"><path class="cls-53" d="M690 524.24l-16.65-23-4.76-149.1Z"/></g>
<g class="lf"><path class="cls-54" d="M655.9 384.66l17.45 116.59-4.76-149.1Z"/></g>
<g class="lf"><path class="cls-55" d="M655.9 384.66l12.69-83.28v50.76Z"/></g>
<g class="lf"><path class="cls-56" d="M687.62 264.9l-19.03 36.48v50.76Z"/></g>
<g class="lf"><path class="cls-57" d="M679.69 679.69L643.21 632.9 614.66 655.1Z"/></g>
</g></g>
<g style="fill: url(#lg-53); filter: url(#filter-2)" class="lf">
<path id="Ai_Fi_R_c" class="cls-58" d="M251.8,744.708l12.489,27.708H240.527Zm-28.057,47.1h-1.1q-3.484,0-4.7.784a3.1,3.1,0,0,0-1.22,2.824,3.285,3.285,0,0,0,1.22,2.953q1.219,0.811,4.938.811h15.277q4.239,0,5.489-.811a3.25,3.25,0,0,0,1.249-2.953,2.964,2.964,0,0,0-1.394-2.8q-1.393-.81-5.228-0.811h-5.634l5-12.442h29.509l5.635,12.442h-5.4q-3.777,0-5.141.811a2.981,2.981,0,0,0-1.365,2.8,3.248,3.248,0,0,0,1.249,2.953q1.248,0.811,5.663.811h15.8q3.02,0,4.125-.811a3.446,3.446,0,0,0,1.1-2.953,3.16,3.16,0,0,0-1.162-2.824,8.279,8.279,0,0,0-4.3-.784H282.35l-22.712-51.077a6.554,6.554,0,0,0-2.062-2.8q-1.134-.758-4.328-0.758H236.693q-5.577,0-6.826.81a3.253,3.253,0,0,0-1.249,2.954,3.121,3.121,0,0,0,1.424,2.9,10.25,10.25,0,0,0,4.966.862h8.481ZM316.7,739.951q1.132,0.993,4.851.993,3.774,0,4.85-1.072t1.075-5.567q0-4.6-1.162-5.83t-4.763-1.228q-3.718,0-4.851,1.464t-1.133,7.11Q315.565,738.958,316.7,739.951Zm9.614,13.07a1.78,1.78,0,0,0-.9-1.569,4.565,4.565,0,0,0-2.469-.575h-17.02a5.6,5.6,0,0,0-3.486.909,3.245,3.245,0,0,0-1.161,2.725,3.287,3.287,0,0,0,1.253,2.778,5.907,5.907,0,0,0,3.643.96h11.369v33.563H299.823a6.206,6.206,0,0,0-3.659.889,3.143,3.143,0,0,0-1.22,2.719,3.418,3.418,0,0,0,1.162,2.823,5.456,5.456,0,0,0,3.485.941H344.61a6.271,6.271,0,0,0,3.747-.811,3.6,3.6,0,0,0,1.016-2.953,3.31,3.31,0,0,0-1.075-2.745,5.3,5.3,0,0,0-3.34-.863H326.312V753.021Zm120.859,38.791v-23.16h15.336v1.516q0,3.817.813,5.124a3.145,3.145,0,0,0,2.9,1.307,3.329,3.329,0,0,0,2.759-.993,6.057,6.057,0,0,0,.785-3.608V758.719a4.9,4.9,0,0,0-.843-3.189,3.356,3.356,0,0,0-2.7-.993,3.145,3.145,0,0,0-2.9,1.307q-0.815,1.306-.813,5.123v1.359H447.171V744.708h31.542v7.476q0,4.026.872,5.176t3.311,1.15a4.337,4.337,0,0,0,2.991-.915,3.506,3.506,0,0,0,1.017-2.745V741.362a4.354,4.354,0,0,0-1.017-3.11,3.933,3.933,0,0,0-2.991-1.072H431.487a4.294,4.294,0,0,0-3.02.967,3.619,3.619,0,0,0-1.046,2.8,3.251,3.251,0,0,0,1.249,2.954q1.248,0.811,5.664.81h3.659v47.1h-5.576a6.708,6.708,0,0,0-3.863.837,3.219,3.219,0,0,0-1.133,2.771,3.619,3.619,0,0,0,1.046,2.8,4.289,4.289,0,0,0,3.02.967h28.638a4.291,4.291,0,0,0,3.02-.967,3.619,3.619,0,0,0,1.046-2.8,3.268,3.268,0,0,0-1.1-2.745,5.783,5.783,0,0,0-3.543-.863H447.171Zm74.778-51.861q1.133,0.993,4.85.993,3.776,0,4.85-1.072t1.075-5.567q0-4.6-1.162-5.83t-4.763-1.228q-3.718,0-4.85,1.464t-1.133,7.11Q520.816,738.958,521.949,739.951Zm9.613,13.07a1.778,1.778,0,0,0-.9-1.569,4.563,4.563,0,0,0-2.469-.575h-17.02a5.6,5.6,0,0,0-3.485.909,3.246,3.246,0,0,0-1.162,2.725,3.288,3.288,0,0,0,1.254,2.778,5.905,5.905,0,0,0,3.643.96h11.368v33.563H505.074a6.209,6.209,0,0,0-3.66.889,3.143,3.143,0,0,0-1.22,2.719,3.418,3.418,0,0,0,1.162,2.823,5.456,5.456,0,0,0,3.485.941H549.86a6.271,6.271,0,0,0,3.747-.811,3.6,3.6,0,0,0,1.016-2.953,3.313,3.313,0,0,0-1.074-2.745,5.3,5.3,0,0,0-3.34-.863H531.562V753.021Zm130.851-8.783q7.957,0,11.966,2.666a8.916,8.916,0,0,1,4.008,7.946,8.75,8.75,0,0,1-4.095,7.869q-4.1,2.64-12.228,2.64H650.04V744.238h12.373ZM650.04,772.312h7.726a11.259,11.259,0,0,1,5.9,1.359q2.235,1.36,5.663,6.012L680.478,794.9a5.634,5.634,0,0,0,.523.523q2.73,3.764,5.577,3.764h6.564a4.182,4.182,0,0,0,2.991-.967,3.682,3.682,0,0,0,1.017-2.8,3.105,3.105,0,0,0-1.22-2.8q-1.22-.81-4.473-0.811H689.54l-11.676-16.1a16.8,16.8,0,0,0-2.294-2.509,13.538,13.538,0,0,0-2.7-1.83q7.318-1.673,11.414-5.986a14.471,14.471,0,0,0,4.1-10.325,16.349,16.349,0,0,0-2.236-8.313,17.279,17.279,0,0,0-6.128-6.221,21.173,21.173,0,0,0-7.407-2.588,84.935,84.935,0,0,0-13.273-.758H634.821a4.518,4.518,0,0,0-3.05.889,3.353,3.353,0,0,0-1.017,2.666,2.913,2.913,0,0,0,1.278,2.771q1.278,0.732,5.635.732h3.369v47.574H635.75a6.727,6.727,0,0,0-3.834.837,3.181,3.181,0,0,0-1.162,2.771,3.622,3.622,0,0,0,1.046,2.8,4.292,4.292,0,0,0,3.021.967h19.517q3.369,0,4.589-.837a3.292,3.292,0,0,0,1.22-2.927,2.976,2.976,0,0,0-1.394-2.771,9.849,9.849,0,0,0-4.763-.837h-3.95v-19.5Z" style="stroke: inherit; filter: none; fill: inherit"/>
</g><use xlink:href="#Ai_Fi_R_c" style="stroke: #f52538; filter: none; fill: none"/></svg>
