<svg xmlns="http://www.w3.org/2000/svg" id="turbineLogo" data-name="Turbine Logo Animated" viewBox="0 0 512 512">
  <defs>
    <filter id="filTurb1_" width="535" height="171" x="-14" y="275" filterUnits="userSpaceOnUse">
      <feOffset in="SourceAlpha" result="offset"/>
      <feGaussianBlur result="blur" stdDeviation="6.6"/>
      <feFlood flood-color="#000" flood-opacity=".1" result="flood"/>
      <feComposite in2="blur" operator="in" result="composite"/>
      <feGaussianBlur in="SourceAlpha" result="blur-2" stdDeviation="18"/>
      <feComposite result="composite-2"/>
      <feComposite result="composite-3"/>
      <feComposite result="composite-4"/>
      <feFlood flood-color="#5E4D3C" flood-opacity=".2" result="flood-2"/>
      <feComposite in2="composite-4" operator="in" result="composite-5"/>
      <feBlend in="SourceGraphic" result="blend-2"/>
    </filter>
    <style>
      .cTur1 {fill:#32373c}
      .cTur2 {stroke-width:2.7182818px;stroke:#abafbc}
      .cTur2,.cTur4,.cTur5,.cTur6 {fill-rule:evenodd}
      .cTur3 {fill:#43484d}
      .cTur4 {fill:none;stroke:gray;stroke-linecap:round;stroke-linejoin:round;stroke-width:7px}
      .cTur5 {fill:rgba(211,215,228,.24);opacity:1;filter:url(#filTurb1)}
      .cTur6 {stroke-width:2.7182818px;fill:rgba(195,195,195,.3);stroke:rgba(255,255,255,.5)}
    </style>
  </defs>
  <circle cx="256" cy="256" r="256" class="cTur1"/>
  <g fill="#3e434d">
    <animateTransform fill="freeze" attributeName="transform" begin="0s" dur="10s" repeatCount="indefinite" type="rotate" values="0 255.5 255.5;360 255.5 255.5"/>
    <path id="path" d="M322.7 235s-7.3-1.4-15-3.2a56.5 56.5 0 014.2 12.9 575 575 0 0113.7 6.3c62 29 156.3-8.1 156.3-8.1 19.1 15.7 13.3 55.5 13.3 55.5-51.8-15.8-44 3.2-88.3-4.1s-80.6-35-80.6-35-6.7-4-13.5-8.3l.2 5a57.4 57.4 0 01-.8 9.4l10.1 10c48.4 48.5 149.9 45.8 149.9 45.8 12.6 21.3-6.6 56.7-6.6 56.7-43.3-32.5-42.5-12-81.6-34s-64-60.4-64-60.4l-9.2-11.7a56.6 56.6 0 01-4.7 11.4 556 556 0 016.9 14.4c28.7 62 124.5 94.2 124.5 94.2 4.5 24.2-25.5 51-25.5 51-29.4-45.3-35.6-25.8-64.7-59.9S308 304.5 308 304.5s-2.8-8-5.3-16a57.3 57.3 0 01-8.7 9.9l1.7 16.5c5.8 68 85 131 85 131-4.1 24.3-41.4 39-41.4 39-12.2-52.5-24.7-36.3-40.5-78.2s-10-87-10-87 0-8.9.5-17.5a56.9 56.9 0 01-12.5 6.8c-1 4-2.2 9-3.9 15.2-17.8 66 35.3 152.3 35.3 152.3-12.2 21.4-52.4 22.5-52.4 22.5 6.5-53.6-10.8-42.6-11.3-87.4s20.2-85.3 20.2-85.3l6.2-15.3a57 57 0 01-13.5 2c-2.3 3.4-5.2 7.8-9 13.1-39.3 56-19 155.5-19 155.5-18.8 16-57 3.3-57 3.3 24.5-48.2 4.4-43.9 19.3-86.2s48.3-73.4 48.3-73.4 5.4-6.3 11.2-12.5a56.8 56.8 0 01-12.9-2.6c-3.4 2.6-7.9 5.8-13.6 9.9-56 39-70.9 139.3-70.9 139.3C131 468 99.4 443 99.4 443c39.4-37 19.2-39.7 47.6-74.3s70.2-52.4 70.2-52.4 7.8-4.4 15.6-8.4a57 57 0 01-12.3-7.5 442 442 0 01-15 4.2C139.4 322 91 410.9 91 410.9c-24.7.2-45.9-34-45.9-34 49.8-21 31.6-30.5 70.2-53.3s84.2-25 84.2-25 8-1.2 16.2-2.2a57.3 57.3 0 01-8.3-10.4l-16.1-1.3c-68-6-143.8 61-143.8 61-23.3-8.3-31.4-47.6-31.4-47.6 54-2.9 40.2-18 84.2-26.2s87.5 5.2 87.5 5.2 8.4 1.6 16.6 3.4A56.6 56.6 0 01200 267l-14-6.3c-61.6-29-156 8.3-156 8.3-19-15.7-13.2-55.5-13.2-55.5 51.7 15.7 44-3.2 88.2 4s80.5 34.8 80.5 34.8 6.8 4 13.7 8.5a58 58 0 01-.2-4.8 57.3 57.3 0 01.7-8.9c-3-2.8-6.7-6.4-11.1-10.9-48.4-48.4-150-45.7-150-45.7C26 169.3 45.2 134 45.2 134c43.3 32.4 42.5 12 81.7 34s64 60.2 64 60.2l10.1 12.9a56.6 56.6 0 014.9-12.1c-2-3.8-4.3-8.7-7.2-15-28.9-61.8-125-93.9-125-93.9C69 95.8 99.1 69.2 99.1 69.2c29.5 45.2 35.7 25.7 65 59.7s39.4 78.2 39.4 78.2 2.9 8.4 5.4 16.6a57.2 57.2 0 019.3-10.4c-.5-4-1-8.8-1.4-14.8C211 130.3 132 67.2 132 67.2c4-24.4 41.4-39.3 41.4-39.3 12.1 52.7 24.7 36.5 40.3 78.5s10 87.3 10 87.3-.1 7.6-.5 15.6a56.9 56.9 0 0111.9-6.4l3.8-14.8c17.8-66-35-152.4-35-152.4C216 14.2 256.3 13 256.3 13c-6.6 53.7 10.7 42.7 11.2 87.6S247.2 186 247.2 186l-6 15a57 57 0 0114.2-2l8.2-11.9c39.3-56 19-155.4 19-155.4 18.8-16.1 57-3.4 57-3.4-24.5 48.3-4.5 44-19.4 86.3S272 187.9 272 187.9s-4.8 5.6-10.1 11.4a56.6 56.6 0 0113.4 3l12-8.6c56.1-39.3 71.1-140 71.1-140 23.2-8.6 54.7 16.4 54.7 16.4-39.5 37.1-19.2 39.9-47.7 74.7S295 197.4 295 197.4l-13.8 7.4a57 57 0 0111 7l15.4-4.2c66-17.7 114.4-107 114.4-107 24.6-.3 45.6 34 45.6 34-49.7 21.3-31.6 30.8-70.1 53.7s-84 25.3-84 25.3-8.4 1.4-16.8 2.4a57.1 57.1 0 018 10.1l14.6 1.2c68.2 6.2 144.2-60.9 144.2-60.9 23.3 8.3 31.5 47.8 31.5 47.8-54 2.7-40.2 18-84.4 26.1s-87.8-5.3-87.8-5.3z" class="cTur2"/>
    <circle cx="256.5" cy="255.5" r="52.5" class="cTur3"/>
    <path d="M263 250c0 .1-1.4-3.2-6-3-4.8.2-9 4.4-9 9 0 5.3 4 12 13 12a18 18 0 0018-18c.6-11.4-8.5-22-22-22s-26.2 12.1-26 28a32.7 32.7 0 0016 27" class="cTur4"/>
  </g>
  <path d="M40 329.3h55.2v9.7H74v52H60.9v-52h-21v-9.7zm67.2 0h13.3v33.5c0 6.4-.3 12.7 2.4 16.4 1.4 2 3.5 2.6 6.5 3a8.9 8.9 0 008.8-4.3c2.1-3.6 1.7-10.2 1.7-16v-32.6H153v31c0 5.7.6 12.4-.8 17-2 6.8-6.2 10.8-12.7 13a26 26 0 01-11.7 1.5c-9.4-1.4-15.6-4.3-18.8-11.8-2-4.8-1.8-11.9-1.8-18.9v-31.8zm62.8 0c16.8-.1 33.2-1.8 42.6 5.8 4.1 3.3 7 12 4.4 19a17.7 17.7 0 01-11.5 10.8l10.6 18.5c1 1.8 4 5.5 4.2 7.5l-.1.1H206l-13-23h-9.9v23H170v-61.7zm62.4 0c16.8-.1 37.2-2.2 44.6 7.3 3.2 4 4.6 11.1 1.3 16.3a14.8 14.8 0 01-5 4.8l-2.9 1.4c11.9 1.9 15.3 19 6.1 26.3-9.4 7.6-27.4 5.6-44 5.6v-61.7zm65.6 0h39.6v9.6h-13.4v42.5h13.4v9.6H298v-9.6h13v-42.5h-13v-9.6zm59.2 0h13.4l18.7 39.4h.1v-39.4h13.3V391H393c-1.1 0-2.8.2-3.6-.2l-18.7-39.3-.2 39.5h-13.3v-61.7zm63.7 0h46v9.7h-32.7v15.5h28v9.4h-28v17.5H467v9.6h-46v-61.7zm-237.7 9.6v19.3c11.2.2 19.8 1.2 21.4-8.7a9.2 9.2 0 00-.7-4.7c-2.8-6.7-11.2-6-20.7-5.9zm62.6.1v16c9.3.2 23 1.4 21.1-9.4-1.4-8-11.8-6.6-21.1-6.6zm0 24.8v17.6c10.9 0 21.1 1.6 22.7-8a8.6 8.6 0 00-.5-4c-2.5-7-12.7-5.7-22.2-5.6z" class="cTur5"/>
  <path d="M40 329.3h55.2v9.7H74v52H60.9v-52h-21v-9.7zm67.2 0h13.3v33.5c0 6.4-.3 12.7 2.4 16.4 1.4 2 3.5 2.6 6.5 3a8.9 8.9 0 008.8-4.3c2.1-3.6 1.7-10.2 1.7-16v-32.6H153v31c0 5.7.6 12.4-.8 17-2 6.8-6.2 10.8-12.7 13a26 26 0 01-11.7 1.5c-9.4-1.4-15.6-4.3-18.8-11.8-2-4.8-1.8-11.9-1.8-18.9v-31.8zm62.8 0c16.8-.1 33.2-1.8 42.6 5.8 4.1 3.3 7 12 4.4 19a17.7 17.7 0 01-11.5 10.8l10.6 18.5c1 1.8 4 5.5 4.2 7.5l-.1.1H206l-13-23h-9.9v23H170v-61.7zm62.4 0c16.8-.1 37.2-2.2 44.6 7.3 3.2 4 4.6 11.1 1.3 16.3a14.8 14.8 0 01-5 4.8l-2.9 1.4c11.9 1.9 15.3 19 6.1 26.3-9.4 7.6-27.4 5.6-44 5.6v-61.7zm65.6 0h39.6v9.6h-13.4v42.5h13.4v9.6H298v-9.6h13v-42.5h-13v-9.6zm59.2 0h13.4l18.7 39.4h.1v-39.4h13.3V391H393c-1.1 0-2.8.2-3.6-.2l-18.7-39.3-.2 39.5h-13.3v-61.7zm63.7 0h46v9.7h-32.7v15.5h28v9.4h-28v17.5H467v9.6h-46v-61.7zm-237.7 9.6v19.3c11.2.2 19.8 1.2 21.4-8.7a9.2 9.2 0 00-.7-4.7c-2.8-6.7-11.2-6-20.7-5.9zm62.6.1v16c9.3.2 23 1.4 21.1-9.4-1.4-8-11.8-6.6-21.1-6.6zm0 24.8v17.6c10.9 0 21.1 1.6 22.7-8a8.6 8.6 0 00-.5-4c-2.5-7-12.7-5.7-22.2-5.6z" class="cTur6"/>
</svg>